<svg id="Layer_1" data-name="Layer 1" xmlns="http://www.w3.org/2000/svg" viewBox="0 0 4664.82 3446.57"><defs><style>.cls-1{fill:#5c0e2c;}.cls-2{fill:#713191;}.cls-3{fill:#014885;}.cls-4{fill:#a1d301;}.cls-5{fill:#0071ce;}.cls-6{fill:#fcfdfc;}.cls-7{fill:#fdfdfd;}.cls-8{fill:#fbfcfc;}.cls-9{fill:#fdfefd;}.cls-10{fill:#fcfdfd;}.cls-11{fill:#fafbf9;}.cls-12{fill:#c8deea;}.cls-13{fill:#014886;}.cls-14{fill:#024886;}.cls-15{fill:#024885;}.cls-16{fill:#1d548b;}.cls-17{fill:#ddedef;}.cls-18{fill:#2b6197;}.cls-19{fill:#e81c2c;}.cls-20{fill:#e91c2c;}.cls-21{fill:#fcfcfc;}.cls-22{fill:#939397;}.cls-23{fill:#060709;}.cls-24{fill:#fbdbab;}.cls-25{fill:#f2c681;}.cls-26{fill:#ebc689;}.cls-27{fill:#f8dbae;}.cls-28{fill:#f3c683;}.cls-29{fill:#f3c682;}.cls-30{fill:#f3c583;}.cls-31{fill:#efc57f;}.cls-32{fill:#fee1b7;}.cls-33{fill:#f7dcab;}.cls-34{fill:#f7daaf;}.cls-35{fill:#dac8ac;}.cls-36{fill:#00adee;}.cls-37{fill:#80c241;}.cls-38{fill:#75b13b;}.cls-39{fill:#6ca336;}.cls-40{fill:#0d5640;}.cls-41{fill:#0d5540;}.cls-42{fill:#0d533e;}.cls-43{fill:#fff;}.cls-44{fill:#ce2428;}</style></defs><path d="M2635.46,596.41c0,2.74.61,3.71,3.53,3.68,13.81-.15,27.63-.22,41.44,0,4,.07,3.75-2,3.6-4.61-.15-2.43,1.17-5.43-3.5-5.26-8,.3-16,.09-24,.08-8.21,0-8.21,0-8.09-8.38.09-6.63,2-8.59,8.63-8.71,5.16-.1,10.32,0,15.48,0,1.62,0,3.34-.1,2.69-2.29-.73-2.46,2-7.05-1.56-7.16-8.3-.27-16.91-2-25.25,2,0-4.57.18-9-.06-13.45-.16-2.87.78-3.63,3.59-3.58,9.48.17,19-.13,28.46.2,4.11.15,3.74-2.15,3.58-4.68-.15-2.35,1.29-5.41-3.43-5.34-13.82.23-27.63.15-41.45,0-2.74,0-3.73.6-3.71,3.57Q2635.67,569.45,2635.46,596.41Z"/><path d="M2717,601.06c2.17-.1,4.19,0,6.16-.31,6.58-1,12.69-2.94,16.45-9,6.14-10,1.74-21.88-9.52-25.85-5.71-2-11.78-2.06-17.66-3.16-3.94-.73-7.88-2.05-7.74-6.91s3.77-6.7,8.1-7.28c6-.81,11.77.12,16.27,4.44,2.11,2,3.42,1.84,5.34.18a13.13,13.13,0,0,1,3.39-2.09c3.33-1.43,2.69-2.92.4-4.89-9.72-8.33-20.83-9.82-32.75-6.46-8.93,2.52-13.9,9.11-13.76,17.34.13,8,5.26,13.69,14.63,15.78,5,1.11,10.22,1.39,15.26,2.41,4.08.83,7.77,2.52,7.72,7.65,0,4-3.25,7.11-8.36,7.74-7.57.92-14.72-.21-20.32-5.91-1.73-1.77-3-2.28-4.93-.61a14.92,14.92,0,0,1-3.8,2.36c-3.25,1.39-2.73,2.87-.64,5C2698.32,598.92,2707.38,600.83,2717,601.06Z"/><path d="M2568.53,600a8,8,0,0,0,1-.36l-21.08-49c-1.3-3-2.81-6-3.9-9.11-.75-2.12-1.93-2.8-4.07-2.63a31.18,31.18,0,0,1-6.48,0c-2.86-.37-4.1.88-5.08,3.42-1.91,4.93-4.21,9.71-6.29,14.57-6.11,14.24-12.18,28.49-18.45,43.16a83,83,0,0,1,9,.06c3.23.38,5-.9,5.82-3.86,2.95-10.82,10.11-15,21-13.27a9.09,9.09,0,0,0,3,0c5.14-1,7.53,1.34,9.3,6.14C2556.49,600.56,2556.75,600.46,2568.53,600Zm-41.29-24c3.36-8.45,6.34-15.91,9.69-24.32,3,7.54,5.75,14.25,8.61,21.32C2539.55,574.27,2533.27,571.91,2527.24,576Z"/><path d="M2597.76,600.93c11.71.12,19.82-2.23,26.44-8.6,6.1-5.87,5.92-6-1.43-10.08-3.33-1.83-4.92-1.68-7.4,1.59-4.75,6.24-11.65,7.92-19.26,6.3-7.29-1.54-11.51-6.34-13.27-13.33a29.08,29.08,0,0,1,.08-14.82c1.78-6.64,5.88-11.29,12.6-12.84,7.19-1.66,14.43-.74,19.13,5.35,3.21,4.14,5.62,4.42,9.34,1.55a9.2,9.2,0,0,1,2.68-1.28c2.83-.93,2.31-2.2.85-4.19-7.66-10.46-22.58-15.09-36.86-11.26-15.6,4.17-23.71,17.91-21.38,36.19C2571.26,591.05,2583.39,600.94,2597.76,600.93Z"/><path d="M2466.5,590.55c0,10.15,0,10,10,9.6,2.52-.11,3.05-.95,2.94-3.21-.17-3.49-.07-7,0-10.49.06-8.08,1.65-9.69,9.56-9.73,4.33,0,8.66-.09,13,0,2.05.06,2.86-.83,2.4-2.65-.59-2.35,1.78-6.69-1.41-6.81-7.65-.3-15.63-2.08-23.55,2.07,0-6.1.16-11.76-.06-17.4-.11-2.77.9-3.29,3.41-3.24,8.65.15,17.32-.07,26,.17,3.42.1,4.85-.72,4.4-4.36-.35-2.79,1-5.84-4.16-5.68-12.81.39-25.65.24-38.47.06-3.33,0-4.11.92-4.07,4.18C2466.6,558.91,2466.5,574.73,2466.5,590.55Z"/><path d="M2600.8,625.48c0-1.57,1-3.93-2.15-3.94s-2.11,2.4-2.12,3.94c-.08,11.57,0,23.14,0,35.64-10.09-12.94-19.5-25-28.92-37-.6-.78-1.25-2-2-2.08-1.9-.24-4.94-2.31-5,2.08,0,13.82,0,27.64-.06,41.45,0,2.05.85,2.52,2.68,2.5s2-1.11,2-2.59c0-7.33,0-14.65,0-22V628.31c10,12.85,19.37,24.9,28.67,37,1.45,1.89,3,3.18,5.38,2.58,3.13-.79,1.42-3.38,1.44-5C2600.91,650.45,2600.86,638,2600.8,625.48Z"/><path d="M2678.06,622.86c-7-2-14.23-.91-21.36-1.23-2.75-.12-2.23,1.76-2.23,3.37v19.48q0,10.24,0,20.48c0,1.45-.4,3.12,2,3,7.3-.22,14.69.72,21.86-1.38,10.65-3.13,16.47-11.11,16.32-22.25C2694.53,633.52,2688.64,625.89,2678.06,622.86Zm-6,40.95c-13,1.42-13,1.42-13-11.41v-8c0-5.17.11-10.34-.06-15.49-.08-2.48.4-3.72,3.22-3.48,3.31.29,6.67,0,10,.37,11.11,1.19,17.91,8.54,17.82,19.06S2683.18,662.59,2672.05,663.81Z"/><path d="M2627.61,621.59a3.28,3.28,0,0,0-3.28,2.35q-9.35,21.81-18.83,43.57c5.1,2.11,5.73-1.89,6.83-4.79,2.65-7,6.21-12.21,15-11.91,10.74.36,10.75.05,15,10.13a28.27,28.27,0,0,1,1.74,4.11c.83,3.42,3,3.34,5.83,2.48-6.24-14.57-12.42-29-18.57-43.4C2630.56,622.45,2629.68,621.46,2627.61,621.59Zm6.2,25.62a70.91,70.91,0,0,0-15.37.92l9.3-21.6c2.77,6.54,5.17,12.43,7.76,18.23C2636.44,646.86,2635.8,647.28,2633.81,647.21Z"/><path d="M2534.06,621.59c-2-.08-2.89.88-3.62,2.6-6.16,14.43-12.4,28.83-18.66,43.32,4.76,1.78,5.51-1.51,6.64-4.23,2.24-5.36,4.08-11.34,11-12.09,4.76-.51,10-1.26,14.28.27,3,1.08,3.32,6.45,4.88,9.88a19.33,19.33,0,0,1,1.43,3.16c.82,3.29,2.74,4.28,6.08,3q-9.37-21.84-18.73-43.66A3.25,3.25,0,0,0,2534.06,621.59Zm-10.22,28.52c3.64-8.45,6.75-15.66,10.14-23.54,3,7.07,5.73,13.53,8.59,20.29C2536.14,647.93,2530.05,645.58,2523.84,650.11Z"/><path d="M2719.65,621.63c-1.63,0-2.81.26-3.4,2.12a63.72,63.72,0,0,1-2.58,5.89q-8.16,18.95-16.31,38c5.74,1.82,5.94-2.67,7.06-5.6,2.74-7.19,7-11,15.45-11.38,7.91-.34,12.42,1.83,14,9.66.31,1.59,1.34,3,1.82,4.59.93,3,2.81,3.82,6,2.58q-9.49-22.05-18.93-44.06C2722.08,621.83,2721.06,621.63,2719.65,621.63Zm-10,28.2,10-23.38,8.58,20.39C2722.19,648,2716.08,645.67,2709.61,649.83Z"/><path d="M2508.26,656.13c-1.69-1-2.74-1-3.92.94a15.61,15.61,0,0,1-8.92,6.77c-14.68,4.71-26.58-6.54-24.23-23,1.11-7.73,5.09-13.24,12.77-15.54a18.43,18.43,0,0,1,20,6.57c1.19,1.55,2,3.08,4.19,1.49,2.8-2,0-3.2-.81-4.27-5.65-7.49-16.82-10.37-26.68-7.07-9,3-14.51,11.58-14.51,22.68,0,11.33,5.63,19.95,14.94,22.86,10.17,3.19,21.59-.14,26.83-7.93C2508.55,658.71,2510.69,657.57,2508.26,656.13Z"/><path class="cls-1" d="M3880.11,1055.52a2.92,2.92,0,0,1-.5-.09v13.11c.17,0,.33,0,.5,0Z"/><path class="cls-1" d="M3879.61,1056.44v-1l-.28,0,0,13.17.3,0v-12.1Z"/><path d="M3183.24,616.85h0v-.44a2.45,2.45,0,0,0-2.36-2.54,7.25,7.25,0,0,0-2.59.1c-3.11.6-6.21,1.24-9.32,1.82-1.23.23-2.46.45-3.68.69-.57.11-.72,0-.75-.61,0-.11,0-.22,0-.33.07-2.44-.11-4.88-.11-7.32,0-.11,0-.22,0-.33-.16-1.76-.19-3.53-.3-5.3-.08-1.23-.15-2.45-.27-3.68a7.35,7.35,0,0,0-.42-2,3,3,0,0,0-2.82-2c-.47,0-.94,0-1.42,0a6.48,6.48,0,0,0-6,3.7c-1.09,2.11-2,4.31-2.91,6.49-2.15,5.06-4.52,10-6.57,15.14a1.18,1.18,0,0,1-.89.77c-1.41.33-2.83.61-4.25.92-.56.12-.64.07-.57-.53.2-1.72.45-3.44.71-5.16.43-2.86.82-5.73,1.15-8.6q.33-2.8.61-5.61c.13-1.25.31-2.51.37-3.77a3.27,3.27,0,0,0-3.15-3.3c-.61-.07-1.22-.06-1.84-.07a4.29,4.29,0,0,0-3.3,1.36,25.49,25.49,0,0,0-1.71,2c-2,2.63-4.19,5.18-6.25,7.79-3.54,4.49-6.9,9.12-10.26,13.75s-6.35,9.16-9.51,13.76c-.68,1-1.37,2-2.1,2.9-.28.37-.34.36-.55,0-.32-.64-.61-1.31-.9-2-1-2.27-1.92-4.58-2.91-6.85a58.77,58.77,0,0,1-2.61-6.55,2,2,0,0,1,.84-2.64,69,69,0,0,1,5.88-4c2.49-1.51,5.07-2.89,7.48-4.53,4-2.75,8.06-5.52,12-8.37a17.78,17.78,0,0,0,2.89-2.44,1.59,1.59,0,0,0,.46-1.78,3.91,3.91,0,0,0-2.56-2.35,6.34,6.34,0,0,0-3.63.13,13.28,13.28,0,0,0-3.81,2.06c-1.05.77-2.06,1.59-3.1,2.38-2.37,1.79-4.77,3.53-7.12,5.35a83.53,83.53,0,0,1-9.12,6.41c.81-1.17,1.59-2.36,2.39-3.54,2-2.84,3.8-5.74,5.76-8.57a12,12,0,0,0,1-1.61,1.85,1.85,0,0,0-1.39-2.72,7,7,0,0,1-1-.13h-1.85a.2.2,0,0,1-.14.06,5.49,5.49,0,0,0-4.21,1.93c-.55.6-1,1.27-1.5,1.92-1.31,1.78-2.53,3.62-3.73,5.47-1.87,2.91-3.81,5.77-5.62,8.72-3.41,5.57-6.47,11.34-9.45,17.15-1,2-2,3.95-2.94,5.94-1.43,3-2.77,5.94-4.11,8.92a6.59,6.59,0,0,0-.72,2.82,1.83,1.83,0,0,0,1.54,1.84,11.83,11.83,0,0,0,3.2.1,5.57,5.57,0,0,0,2.53-.74,7.1,7.1,0,0,0,2.79-3.44c.62-1.42,1.16-2.88,1.75-4.32,1-2.35,2.08-4.62,3.05-7,1.19-2.84,2.42-5.66,3.87-8.38.32-.61.63-1.24,1-1.9a7,7,0,0,1,.55,1.46c.6,1.9,1.11,3.83,1.78,5.7.79,2.2,1.5,4.42,2.19,6.65,1.06,3.44,2.12,6.88,3.31,10.28a4.17,4.17,0,0,0,.63,1.2,2.07,2.07,0,0,0,1.39.85c.54.09,1.08,0,1.61.14h1.74c.13-.1.28-.05.42-.05a2.88,2.88,0,0,0,2.35-1,11.67,11.67,0,0,0,1.09-1.61q3.57-6.64,7.13-13.3a1.48,1.48,0,0,1,1.17-.83c3.58-.58,7.16-1.22,10.71-2,.87-.19,1.74-.34,2.61-.5.56-.1.65,0,.53.57l-.09.36c-.52,2.22-1.19,4.41-1.69,6.63a33,33,0,0,0-.9,6.49c0,.34,0,.69,0,1a5.53,5.53,0,0,0,.56,2.25,2.15,2.15,0,0,0,1.61,1.15,9.86,9.86,0,0,0,3.51-.12,4.36,4.36,0,0,0,1.81-.81,6.26,6.26,0,0,0,2.1-3.7c.17-.73.19-1.47.29-2.21.33-2.23.7-4.47,1.05-6.7.31-2,.64-4.08,1-6.11.11-.68.22-.79.92-.94l2.51-.5c.74-.14.83-.05.62.67-1.13,3.88-2.31,7.74-3.44,11.61a43.44,43.44,0,0,0-1.43,5.29c-.31,2,.46,3.26,2.32,3.66a7.25,7.25,0,0,0,2.86,0,2.66,2.66,0,0,0,2.23-1.91c1.34-4.58,2.77-9.14,3.88-13.79.54-2.26,1.31-4.45,2-6.67a.84.84,0,0,1,.68-.69c2-.37,4.05-.77,6.09-1.09.54-.08.69.05.68.57,0,2.62.14,5.24.23,7.86,0,.92,0,1.85,0,2.77,0,.46,0,.92,0,1.39a2,2,0,0,1,0,.48,46.46,46.46,0,0,0,.34,5.78,23.16,23.16,0,0,0,.68,3.79,2.07,2.07,0,0,0,1.54,1.65,12.52,12.52,0,0,1,1.37,0c.82-.11,1.65-.18,2.48-.29a3.54,3.54,0,0,0,3.19-2.55,6.16,6.16,0,0,0,.27-1.76,24.52,24.52,0,0,0-.21-3.08c-.22-2.48-.51-5-.83-7.43-.26-2-.48-4.05-.61-6.09-.08-1.32,0-2.64-.11-4a.61.61,0,0,1,.59-.74c2.61-.44,5.21-.86,7.81-1.33s5.15-.77,7.69-1.38c1.69-.4,2.09-.94,2.1-2.68h0Zm-58.09,29a3.19,3.19,0,0,1-.05-1.11A4.57,4.57,0,0,1,3125.15,645.89Zm6.52-37.19c-.93,5-1.87,10.06-2.78,15.09a.64.64,0,0,1-.6.61c-3.61.79-7.2,1.6-10.8,2.4-.19.05-.39.08-.58.11l-.11-.1c4.84-7.3,10-14.4,15.31-21.35l.14.07C3132.06,606.59,3131.86,607.65,3131.67,608.7Zm24.83,9.71c-1.78.32-3.55.69-5.32,1a.56.56,0,0,1-.47,0c2-5.28,3.81-10.65,5.82-16,.06,4.82.41,9.62.39,14.44C3156.92,618.22,3156.85,618.35,3156.5,618.41Zm.71,19.42a6,6,0,0,1-.07-1.46A6,6,0,0,1,3157.21,637.83Zm2.31,11.44h1.42A3.4,3.4,0,0,1,3159.52,649.27Z"/><path d="M3157.21,637.83a5.94,5.94,0,0,0-.07-1.46A5.94,5.94,0,0,0,3157.21,637.83Z"/><path d="M3160.94,649.27h-1.42A3.4,3.4,0,0,0,3160.94,649.27Z"/><path d="M3125.15,645.89a4.57,4.57,0,0,0-.05-1.11A3.19,3.19,0,0,0,3125.15,645.89Z"/><path d="M3062.52,597.43c.7-1.39.23-2.25-1.31-2.51a13,13,0,0,0-2.33,0,3.78,3.78,0,0,0-3.34,2.15c-.12.22-.25.44-.36.66-3.8,7.47-7.68,14.91-11.28,22.48a20.79,20.79,0,0,1-2,3.49v-.54a140.33,140.33,0,0,1,1.35-19.32,18,18,0,0,0,0-5.62,2.11,2.11,0,0,0-1.86-1.82,4,4,0,0,0-4.34,1.3c-.09.11-.19.22-.28.34a20.72,20.72,0,0,0-2.17,3.8c-3.1,6.36-6.42,12.62-9.27,19.11-3.23,7.32-6.63,14.56-10,21.84a23.66,23.66,0,0,0-1.66,4.23,2,2,0,0,0,1.73,2.8,10.41,10.41,0,0,0,2.16.12,4.39,4.39,0,0,0,3-1,8.88,8.88,0,0,0,2.82-4.1c1.55-4.2,3.3-8.32,5-12.46s3.59-8.09,5.22-12.2c.38-1,.74-1.9,1.12-2.85a18.85,18.85,0,0,1-.15,3.84c-.36,3.15-.58,6.31-.82,9.47s-.48,6.46-.73,9.69c-.17,2.14-.37,4.29-.53,6.43a2.17,2.17,0,0,0,1.92,2.62,2.66,2.66,0,0,0,.37.07c2.92.44,3.85-.34,4.72-2.28.48-1.07,1-2.13,1.41-3.23,2.15-5.55,4.43-11.06,6.8-16.52,3.29-7.58,7.18-14.87,10.88-22.24C3059.91,602.55,3061.23,600,3062.52,597.43Z"/><path d="M3086.84,604a41.88,41.88,0,0,0,2.78-5.15c.75-1.82.31-2.72-1.52-3.39a3.81,3.81,0,0,0-4.65,1.28,14.88,14.88,0,0,0-1,1.59c-2.06,3.25-4.12,6.51-6.21,9.75a42.57,42.57,0,0,1-3.05,4.48,5.33,5.33,0,0,1-3.54,2.1c-1.8.21-3.27-.62-2.83-2.83a13,13,0,0,1,.61-2.13c.83-2.06,2-4,2.85-6,.78-1.81,1.62-3.59,2.49-5.36a1.92,1.92,0,0,0-.79-2.75c-1.36-.81-4.24-.61-5.35,1.36-1.65,3-3.31,5.89-4.78,8.93-1,2-2,3.9-2.76,5.95a15.66,15.66,0,0,0-1.28,5.51v.38a3.8,3.8,0,0,0,3.35,4,12.67,12.67,0,0,0,3.79,0,8,8,0,0,1,2.59-.07.88.88,0,0,1,.77,1,3.54,3.54,0,0,1-.29,1.15,17.22,17.22,0,0,1-1.27,2.45c-3.57,6-7.27,12-10.67,18.13a9.81,9.81,0,0,0-1.14,2.69,1.67,1.67,0,0,0,1.35,2.25,7.87,7.87,0,0,0,4-.05,4.06,4.06,0,0,0,2.24-1.61,11.69,11.69,0,0,0,1.15-2.15,249.94,249.94,0,0,1,13.81-26.34C3080.56,614.09,3083.84,609.12,3086.84,604Z"/><path d="M3319.28,800.86c1.31-.57,1.95-.81,2.56-1.12,6.3-3.19,8.95-8,7.84-14.19-1.06-5.9-5.12-9.79-11.92-10.24s-13.7-.09-20.56-.09c5.21,1.38,4.12,5.44,4.13,8.92,0,9.91.17,19.82-.12,29.72-.06,2.09-1.76,4.13-2.71,6.19-2-1.53-4.79-2.65-5.79-4.67-3.24-6.56-5.81-13.45-8.64-20.21l-9-21.35-20.5,47.7h5.12c1.62-4.39,2.74-8.5,4.67-12.19a7.27,7.27,0,0,1,5.12-3.39c12.47-.64,12.32-.43,17.67,10.87,1,2.11,3.67,4.58,5.8,4.81,6.06.65,12.24.23,18.59.23-1.73-2-4.3-3.53-4.34-5.16-.34-12.77-.19-25.56-.19-38.25,11.22-1.41,16,.6,16.76,7.23.29,2.56.09,6.49-1.48,7.68-3.61,2.73-8.2,4.17-11.95,5.93a62.92,62.92,0,0,1,5.81,5.43c2.63,3,4.79,6.49,7.37,9.59,5.26,6.3,12.66,8.83,19.75,6.37C3330.42,819.31,3327,808.05,3319.28,800.86Zm-52.51,2.21c2.47-6.39,4.79-12.4,7.61-19.72,2.7,7.25,4.95,13.31,7.32,19.72Z"/><path d="M3187.82,801a55,55,0,0,0,5.18-2.84c4.34-3.06,5.83-7.32,5-12.52-.74-4.86-3.45-8.77-8.06-9.42-8.13-1.13-16.43-1.08-23.4-1.46,1.31,3.31,3.1,5.84,3.19,8.43.35,9.91.39,19.85,0,29.75-.11,3-2,5.86-3,8.77h12.69c-1.33-1.93-3.65-3.76-3.7-5.64-.33-12.46-.17-24.92-.17-37.7,11-1.08,15.45.68,16.62,6.51.82,4.14.63,8.56-3.46,10.77-3.27,1.77-7.25,2.25-10.41,3.15,2,1.92,4.44,3.87,6.46,6.16,2.18,2.47,4,5.27,6,7.89,5.7,7.37,12.84,10.3,21,7.92C3198.8,819.21,3195.37,808,3187.82,801Z"/><path d="M3058,774.41c-13.5-.13-22.93,9.64-23.09,23.93-.17,14.78,8.91,24.86,22.54,25,13.45.17,23.33-10.19,23.33-24.47C3080.75,784.83,3071.18,774.54,3058,774.41Zm-.83,45.77c-10.08-.29-16.89-9.38-16.52-22,.39-12.85,7.57-21,18-20.55,9.75.46,16.13,8.83,16.17,21.19C3074.84,811.93,3067.78,820.48,3057.15,820.18Z"/><path d="M3139.12,774.42c-13.76-.06-23,9.81-23,24.52s9.42,24.54,23.14,24.43c13.28-.11,22.56-10.21,22.56-24.52S3152.4,774.48,3139.12,774.42Zm-2.7,45.59c-9.08-1.22-14.86-10-14.55-22.11.29-11.44,6.41-19.44,15.46-20.23,11.1-1,18.74,7.82,18.65,21.42C3155.89,813,3147.87,821.55,3136.42,820Z"/><path d="M3236.89,774.53a19.59,19.59,0,0,0-16.91,6.33c-5.18,5.65-9.62,12-14.27,18.11-.48.63-.24,1.81-.34,2.74,3.6-2.91,6.1-6.43,9-9.54,4.13-4.38,8.22-8.94,13-12.55,4.42-3.34,9.76-3,14.46.12,4.11,2.76,5.66,7.13,4,11.59-1.14,3.12-4,5.61-6.06,8.31,6.1,3.17,8.3,9.7,4.81,15.93a11.1,11.1,0,0,1-16.71,3.26c-5.23-3.92-9-9.84-13.36-14.87a15.9,15.9,0,0,0-1.19-1.1l-3,4c5.34,6.76,10.66,12.76,18.71,15.48,7.65,2.57,15.26.84,19.61-4.49,4.58-5.59,4.48-10.43-.4-18.58C3255.57,787,3250.39,775.83,3236.89,774.53Z"/><path d="M3015.49,819.74c-7.13,1.27-13.49-1.71-17.28-8.21-4.52-7.74-5.29-16-1.1-24.15,3.19-6.19,8.6-9.41,15.63-9.43s11.89,3.09,14.57,9.62a9.78,9.78,0,0,0,1.4,1.81c1.41-9.4-.54-11.93-10.5-14.22-10.89-2.49-21.22,1.88-26.34,11.15-5.44,9.85-3.85,22.39,3.81,30.05a25.18,25.18,0,0,0,29,4.12c3.2-1.76,5.68-3.92,5.18-6.85C3025.23,815.69,3020.56,818.84,3015.49,819.74Z"/><path d="M3094.42,818.57c0-11,0-21.64,0-32.24,0-4.19-1.44-9,5.82-11h-14.49c1,2.76,2.66,5.45,2.76,8.19.35,9.15.16,18.33.12,27.5,0,4.07,1.32,8.75-5.09,10.39a10.82,10.82,0,0,0,1.42.49l19.78,0c8.09,0,10.57-2.7,10.27-13.36C3111,819.81,3103.3,819.7,3094.42,818.57Z"/><path d="M2910,973.62c-3.22,0-6,0-8.8,0a2.46,2.46,0,0,1-1.53-1c-4.68-6.07-9.37-12.15-13.94-18.32a3.33,3.33,0,0,0-3.9-1.55,75.31,75.31,0,0,1-7.78.81c0-2.59,0-4.85.06-7.11,0-.25.79-.61,1.25-.69,2.45-.42,5-.56,7.36-1.17a25.26,25.26,0,0,0,19.19-22.78,25.52,25.52,0,0,0-16.23-25.48,30.7,30.7,0,0,0-9.51-1.8c-6-.23-12,.08-18,.1-1.13,0-1.19.59-1.19,1.45,0,6.56,0,13.11,0,19.67v57.83h-7.82c0-.55-.08-1.08-.08-1.61q0-41.79,0-83.56c0-1.37.4-1.7,1.72-1.69,8.64.06,17.28,0,25.92,0a33.26,33.26,0,0,1,16.65,61.84l-1.5.92,8.95,11.92Z"/><path d="M2978.18,886.08c2.6.09,5.09-.37,7.63.82,14.45,6.75,29,13.39,43.45,20.06l1.88.84V886.06c2.36,0,4.53,0,6.7,0,.25,0,.61.43.71.73a3.76,3.76,0,0,1,0,1.21q0,41.79,0,83.57v1.91h-7.44v-1.77q0-26.91,0-53.82a1.89,1.89,0,0,0-1.23-2.1q-21.24-9.62-42.45-19.31c-.41-.19-.83-.34-1.48-.61v77.62h-7.84Z"/><path d="M2946.17,928.54c-.7,0-1.24.08-1.79.08-5.54,0-11.08,0-16.62,0-1.2,0-1.69.25-1.69,1.58q.07,17.15,0,34.31c0,1.3.51,1.48,1.62,1.48,14.53,0,29.06,0,43.6-.05,1.51,0,2.09.32,2,1.92-.16,1.85,0,3.73,0,5.69H2918.5c0-.56-.08-1.1-.08-1.64q0-42,0-84c0-1.25.34-1.63,1.62-1.63q26.44.06,52.9,0c1.34,0,1.8.33,1.69,1.7a38.7,38.7,0,0,0,0,4.57c0,1-.36,1.29-1.26,1.22-.45,0-.91,0-1.37,0h-43.91c-2,0-2,0-2,2,0,7.77,0,15.55,0,23.32,0,1.37.42,1.71,1.74,1.7,5.59-.07,11.18,0,16.77,0,1.27,0,1.68.37,1.63,1.64C2946.1,924.36,2946.17,926.38,2946.17,928.54Z"/><path d="M3163.09,965.88v7.65h-54.58V886.38c.5,0,1-.1,1.56-.1,17.58,0,35.16,0,52.74,0,1.47,0,1.85.47,1.74,1.82a26.17,26.17,0,0,0,0,4c.11,1.32-.31,1.74-1.68,1.74-9.2-.06-18.4,0-27.59,0-5.9,0-11.79,0-17.69,0-1.2,0-1.56.35-1.55,1.56q.08,12,0,23.93c0,1.22.37,1.56,1.56,1.55,5.64,0,11.28,0,16.92,0,1.28,0,1.68.4,1.63,1.65-.09,2,0,4,0,6.28h-1.95c-5.54,0-11.08,0-16.62,0-1.08,0-1.51.27-1.51,1.45,0,11.53,0,23.07,0,34.6,0,.35.06.7.11,1.23Z"/><path d="M3105,886.27c0,2.36,0,4.44,0,6.51,0,.33-.5.76-.86.9a3.78,3.78,0,0,1-1.35.05h-46.12v26.95h19.86v7.94H3058c-.87,0-1.56,0-1.55,1.22,0,11.79,0,23.58,0,35.37,0,.15.05.3.12.74h1.85q20,0,39.94,0c1.66,0,3.95-.47,4.79.4s.3,3.16.35,4.82c0,.75,0,1.5,0,2.34h-54.68c0-.56-.08-1.1-.08-1.64q0-41.83,0-83.69c0-1.51.35-2,1.93-2,17.48.06,35,0,52.43,0Z"/><path d="M3079.74,873.48c-2.74,3-5,6-7.76,8.43-.89.82-2.82.52-4.27.72l-.22-.42c1.79-2.8,3.57-5.61,5.4-8.39a1.33,1.33,0,0,1,.94-.33C3075.65,873.46,3077.47,873.48,3079.74,873.48Z"/><path class="cls-2" d="M2101.6,1293.85c.18-25,4.38-49.73,6.56-74.6.29-3.31.86-6.61,1-9.93,1.23-29.23,30.36-48.22,54.88-45.47,13.07,1.47,26.16,2.79,39.25,4.12,4.3.44,9.07,2,12.81.71,4.25-1.48,3.32-7.38,4.79-11.25,6.48-17,18.41-29.56,32.14-40.61a163.54,163.54,0,0,1,32-20.17c3.55-1.69,5.06-1,6.24,2.45,1.69,4.86,3.44,9.72,5.42,14.48,1.68,4.05.55,5.45-3.78,6.11-14.57,2.19-28.74,5.81-41.13,14.33-10.84,7.44-18.34,17.23-21.2,30.29-1.25,5.69-.78,6.33,4.82,6.9,16.9,1.7,33.82,3.24,50.68,5.28,26.39,3.2,47,28.56,43.51,55.14-3,22.92-4.34,46.08-7.22,69-3.38,26.86-11.12,52.48-26.5,75.08-15.9,23.35-37.53,38.38-66.09,42.12-25.75,3.38-50.68.36-73.77-11.85-24.4-12.9-38.95-34-47.09-60C2103.58,1329,2101.48,1311.61,2101.6,1293.85Z"/><path class="cls-2" d="M2522.77,1321.28c0-23.48.11-47,0-70.46a82.8,82.8,0,0,0-8-36.25c-10-20.52-26.56-31-49-32.45-23-1.49-42.58,5.34-55.65,25.41-8.88,13.63-12.07,29-12.06,45.18,0,46.81-.14,93.62.14,140.43.06,9.63-2.44,17.55-11.53,21.22-9.66,3.9-19.57,3.68-28.39-3.13-4.55-3.51-6.58-8.2-6.58-13.89,0-32-.09-64,0-95.95.09-25.1,4.59-49.34,15.25-72.22,9.9-21.23,24.72-38,46.27-47.72,19.57-8.86,40.36-11,61.64-8.68,22,2.42,41.59,10.12,57.72,25.73a109.63,109.63,0,0,1,11.6,13.69c1.43,1.91,2.32,2.44,4,0,16.11-23.12,38.66-35.47,66.27-39.11,21.38-2.82,42.31-1,62.31,7.37,21.52,9,36.7,24.89,47,45.54,12.36,24.8,17,51.34,17.09,78.83.06,30.15-.05,60.3,0,90.46,0,12.16-6.58,19.62-18.75,21a33.93,33.93,0,0,1-13.87-1c-9.12-2.8-13.79-9.77-13.8-20.2q0-71.72,0-143.43c0-15.66-3.62-30.47-12-43.73-12.57-19.93-31.69-26.93-54.37-26-17.11.72-32,6.7-42.82,20.34-11.18,14.09-15.69,30.69-15.83,48.46-.18,22.32,0,44.64,0,67q0,38.48,0,77c0,13.61-6.93,21-20.6,21.77-7.68.43-14.91-.69-20.64-6.72a18.65,18.65,0,0,1-5.34-13.52q.09-37.49,0-75Z"/><path class="cls-2" d="M1980.71,1265.72c-9.71-34.28-29.67-61.79-61.12-79.45-38.49-21.62-76.88-19-113.46,4.59-30.89,19.94-47.08,49.83-53.45,85.52a209.89,209.89,0,0,0-2.94,37.29q.13,76.71,0,153.43c0,9.61,4.68,15.44,12.67,19.69,4.31,2.3,8.79,1.44,13.2,1.48,12.67.14,20.65-7.77,20.65-20.23q0-41.24,0-82.46v-7.86c2.85,1.22,2.92,3.32,3.75,4.85,7.74,14.24,18,26.27,32.85,33.09,27.62,12.71,55.36,10.4,82-2.77,27.54-13.59,47.11-35.13,59.75-63.28C1986.84,1322.26,1988.74,1294.06,1980.71,1265.72Zm-56.06,101.94c-2.67,11.35-7.06,22.12-15,31.17-9,10.24-20.43,15.3-33.63,16.55-21.14,2-40.37-2.38-56.11-17.79-11.49-11.24-17.64-25.15-21.12-40.53a125.39,125.39,0,0,1-2.68-27.75c0-27.48.08-55,2.55-82.35,1.39-15.54,5.54-30.12,15.52-42.47,7.23-9,16-16,27.11-19.66,17.69-5.78,35.56-6,52.74,1.5,18.5,8,28,23.74,31.73,42.72,4.32,22.27,5.27,45,5.08,67.63C1931,1320.54,1930.13,1344.35,1924.65,1367.66Z"/><path class="cls-2" d="M2018.18,1254.08V1121.22a39.87,39.87,0,0,0-.07-6c-3-19.52,15.87-26.15,29.08-22.91,11.45,2.81,17,10,17,22,0,93.07-.13,186.13.15,279.2,0,12.82-6.82,19.45-13.86,21.83-11.09,3.74-23.69.07-29.76-8.37-2.73-3.79-2.48-8.19-2.48-12.5Q2018.16,1324.26,2018.18,1254.08Z"/><path class="cls-3" d="M3342.78,1475.91l-5.43,0a99.51,99.51,0,0,1-23.64-2.28c-15.65-3.11-31.41-5.64-47-9.11a744.15,744.15,0,0,1-87.76-24.94c-33.81-12-66.32-26.88-96.94-45.54-26.81-16.34-51.57-35.43-71.58-59.94-4.22-5.18-9.48-10-10.88-17.05a1.67,1.67,0,0,1,0-.94c.19-2.42,1.45-4.35,2.74-6.3,10.93-16.6,25.1-30.17,40.25-42.74,29.33-24.33,62.34-42.59,97.05-57.93,47-20.77,96-35.08,146.37-44.63,16.66-3.15,33.3-6.67,50.3-7.73a2.24,2.24,0,0,1,1.4.23l5.58,0c11.71-.21,23.06,2.49,34.51,4.32,28.47,4.58,56.42,11.52,84.19,19.19,16.54,4.57,32.76,10.1,48.78,16.25,17.88,6.86,35.5,14.22,52.68,22.78,26.66,13.27,51.87,28.68,74.9,47.57,15.51,12.73,29.77,26.66,40.57,43.77a14,14,0,0,1,2.3,4.95l0,1.09c-.06,2.29-1.29,4.07-2.48,5.88-10.91,16.62-25,30.28-40.17,42.85-31.59,26.16-67.31,45.34-104.85,61.37-41.67,17.81-85,30.48-129.26,39.6-19.55,4-39.18,7.86-59.13,9.62A5.32,5.32,0,0,1,3342.78,1475.91Z"/><path class="cls-4" d="M3337.61,1157c-15.72,2.63-31.5,5-47.16,7.94-71.9,13.64-140.92,35.48-204.22,73.1-27.74,16.48-53.43,35.64-74.14,60.74-4.54,5.49-8.41,11.53-12.59,17.32-8.18-14.07-13.27-29-13.08-45.5.28-23.92,11.29-42.73,28.36-58.43,22.34-20.53,49.44-32.31,77.93-41.23,33-10.35,67-15.68,101.46-18.29,47.34-3.59,94.52-1.7,141.61,3.68A8.08,8.08,0,0,1,3337.61,1157Z"/><path class="cls-4" d="M3342.78,1475.91c17.7-3,35.46-5.63,53.07-9,61.06-11.83,120-30.16,175.33-59,34.28-17.87,66.21-39.06,92.47-67.91a196.11,196.11,0,0,0,17.44-23c22.51,36,15.52,78.18-17,105.57-26.47,22.34-57.6,34.76-90.45,43.6-33.38,9-67.47,13.33-102,15.11-42.52,2.19-84.84.11-127.09-4.65A8.91,8.91,0,0,1,3342.78,1475.91Z"/><path class="cls-5" d="M3681.12,1315.83c-5-5.7-8.69-12.43-13.59-18.29a238.1,238.1,0,0,0-34.46-33,376.4,376.4,0,0,0-63.63-40.59c-20.65-10.58-42.07-19.36-63.81-27.58-30.18-11.41-61.24-19.47-92.54-26.83-21.12-5-42.61-8.07-64-11.45-2-.31-3.91-.71-5.87-1.06,11.95-2.29,24.09-3,36.18-3.91,47-3.57,93.88-3.4,140.61,3.1,40.61,5.65,80.15,15.13,116.47,35.06,16.05,8.8,30.51,19.68,41.72,34.39C3698.58,1252.44,3699.69,1287.49,3681.12,1315.83Z"/><path class="cls-5" d="M2999.54,1317.08c6.77,9.8,13.85,19.27,22.18,27.89,15.43,16,32.73,29.59,51.25,41.7,20.4,13.34,42,24.37,64.18,34.55,33.76,15.51,68.87,26.91,104.69,36.19,21.79,5.64,43.91,10,66.14,13.75,9.78,1.66,19.74,2.24,29.37,4.78-12.44,2.36-25.06,3.08-37.64,4a685.23,685.23,0,0,1-93.85,1c-52.17-3.12-103.26-11.26-151-33.89-19.29-9.13-36.86-20.77-50.5-37.52C2982.14,1382.41,2980.35,1346.62,2999.54,1317.08Z"/><path class="cls-6" d="M3391.38,1359.76c0,11-.15,20.84.08,30.65.07,3.4-1.1,4.2-4.27,4.22-9.64,0-9.64.17-9.64-9.23,0-29.62.08-59.25-.1-88.87,0-4.17,1.16-5.8,5.26-5.13a7.44,7.44,0,0,0,2,0c4.51-.54,8,.12,6.54,7,9.34-8.11,19.34-10.33,30.37-8.63a36,36,0,0,1,21.53,11.59c12.53,13.53,13.93,36,3.22,51.35a36.45,36.45,0,0,1-26,15.92C3409.79,1370.05,3400,1367.64,3391.38,1359.76Z"/><path class="cls-7" d="M3069.09,1314.78c1-22.3,10.7-39.68,32-48.48,20.79-8.57,40.47-5.53,57.71,9.55,4.87,4.25,4.75,4.38,0,8.72a19.88,19.88,0,0,0-2.54,2.39c-2.13,2.78-3.71,1.91-5.89-.21-12.3-11.93-26.84-14.08-42.47-8.34-14.86,5.45-24.29,20.33-24.31,36.86s9.34,30.92,24.14,37a38.94,38.94,0,0,0,43.21-9c2.36-2.49,3.6-2.2,5.87-.13,7.7,7,7.91,7.14-.31,13.61-17.82,14-37.49,16-57.68,6.57S3069.86,1336.84,3069.09,1314.78Z"/><path class="cls-8" d="M3359.43,1331.46c0,6.49.1,13,0,19.47-.07,3.23.81,5.26,4.44,4.9,2.32-.23,3.11,1,2.65,2.94-.66,2.81,2,6.45-2.18,8.39-4.43,2.06-11.49,1.36-14.34-2.28-2.11-2.7-3.29-2-5.86-.72-11.35,5.76-23.22,6.7-35.2,2.09-7.72-3-11.73-9.08-12.49-17.19-.84-9,1.94-16.43,9.78-21.48,7.64-4.92,16.41-6.12,25.12-7.44a64.07,64.07,0,0,0,7.38-1.16c2.55-.71,6-.38,6.6-4.17.63-4.31-.6-7.86-4.6-10.18-7.06-4.09-19.05-2.34-25.56,3.81-5.45,5.14-5.23,4.83-11.26.69-4-2.76-3.18-4.72-.62-7.75,10.22-12.05,31.44-16.06,45.26-8.38,7.65,4.25,10.63,11.16,10.84,19.49.17,6.32,0,12.65,0,19Z"/><path class="cls-9" d="M3214,1333c-8.33,0-16.66.22-25-.09-4.06-.16-4.24,1.41-3.52,4.64,3.84,17.11,24.85,24.12,39.5,13.12,6.86-5.15,6.73-5,12.9.95,2.33,2.26,1.94,3.39-.11,5.47-11.3,11.46-29.76,15-45.34,8.47-14-5.88-22.07-19.81-21.5-37.31.85-26.11,19.57-42.49,44.33-38.26,14.24,2.44,22.74,11.65,26.68,25.26a50.93,50.93,0,0,1,1.55,12.86c.11,3.71-.94,5.19-5,5C3230.38,1332.72,3222.2,1333,3214,1333Z"/><path class="cls-6" d="M3480.58,1298.72c13.39-11.14,30.52-11.12,40.59-.65,5.26,5.47,7.38,12.2,7.45,19.57.14,15.15,0,30.3.12,45.45,0,3.16-1.07,3.86-4,3.88-9.74,0-9.74.16-9.74-9.52,0-11.82.13-23.65,0-35.47-.1-7.33-2-14.1-9.54-17.2a17.41,17.41,0,0,0-18.75,2.94c-4.68,3.93-6.06,9.37-6.06,15.25,0,13-.14,26,.08,39,.07,3.82-.84,5.17-4.91,5.06-9-.25-9,0-9-8.87,0-29.81.07-59.61-.09-89.42,0-3.91,1-5.07,5-4.94,8.93.28,8.94.07,8.94,8.86Z"/><path class="cls-6" d="M3258.41,1328c0-6.65-.14-13.31.06-20,.09-2.86-.8-4-3.61-3.52-4.08.72-5.37-1.15-4.82-5a12.36,12.36,0,0,0,0-3.49c-.53-3.64.73-5.39,4.59-4.7,3.09.54,4-.78,3.85-3.85-.24-6.64,0-13.3-.11-20,0-2.58.37-3.79,3.45-3.85,10.5-.23,10.49-.37,10.49,10.26,0,4.66.14,9.32,0,14-.1,2.53.55,3.69,3.28,3.46,2.31-.19,4.65-.06,7,0,7.42.08,6.47-1,6.53,6.71,0,6.42,0,6.42-6.32,6.43-10.43,0-10.42,0-10.42,10.65,0,9.82,0,19.63,0,29.44,0,9.44,2.84,12.33,12,10.92,4.48-.69,4.83.8,4.76,4.45-.19,9-.05,9-9.07,8.9-13.45-.13-21.26-7.79-21.62-21.44C3258.26,1341,3258.41,1334.52,3258.41,1328Z"/><path class="cls-10" d="M3575.55,1308.65c0-13.47.12-27-.07-40.42-.05-3.48.93-4.51,4.44-4.46,9.44.12,9.45,0,9.45,9.33q0,36.44,0,72.87c0,8.6,2.44,10.82,10.9,9.4,2.61-.43,3.33.15,3,2.57a12.51,12.51,0,0,0,0,1.5c.06,10-.53,10.52-10.64,9.35-10.78-1.24-16.9-8.07-17.07-19.71-.19-13.47,0-26.95,0-40.43Z"/><path class="cls-8" d="M3558.82,1329.47c0,11-.1,21.93.06,32.89,0,3.26-.53,4.69-4.28,4.63-9.59-.15-9.59,0-9.59-9.72,0-20.27.07-40.54-.08-60.81,0-3.64.56-5.29,4.79-5.16,9.1.28,9.11,0,9.1,9.26Z"/><path class="cls-11" d="M3560.56,1274.17a8.47,8.47,0,0,1-9.11,8.41,8.67,8.67,0,0,1-8.29-8.86,8.82,8.82,0,0,1,9-8.73A8.7,8.7,0,0,1,3560.56,1274.17Z"/><path class="cls-12" d="M3613.9,1272.46a8.67,8.67,0,1,1-17.34-.29,8.68,8.68,0,0,1,17.34.29Z"/><path class="cls-13" d="M3439.57,1329.16c0,15.25-10.53,26.81-24.33,26.68-14.29-.12-25-11.56-25-26.79s10.65-26.49,25.12-26.49C3429.55,1302.57,3439.57,1313.57,3439.57,1329.16Z"/><path class="cls-14" d="M3345.38,1338.35c-.05,12.21-9,19-23.3,17.41a24.14,24.14,0,0,1-4.39-.84c-3.9-1.16-7-3.28-7.44-7.7s1.52-7.33,5.13-9.43c3.94-2.3,8.33-3.11,12.75-3.84,4.09-.68,8.33-.9,12.2-2.21,4.61-1.57,5.6,0,5.07,4.13A18.65,18.65,0,0,0,3345.38,1338.35Z"/><path class="cls-15" d="M3207.36,1320.24c-6.16,0-12.32-.12-18.48.06-2.62.07-3.17-.65-2.41-3.11,2.5-8.08,12.09-14.58,21.84-14.64a20.26,20.26,0,0,1,19.61,13.45c1.09,3.19.7,4.51-3.09,4.33-5.81-.27-11.65-.07-17.47-.07Z"/><path class="cls-16" d="M3612,1272.33c0,3.85-3,7.23-6.6,7.33a7.26,7.26,0,1,1,6.6-7.33Z"/><path class="cls-17" d="M3602.06,1276.66c0-2.22-.13-4.46,0-6.67.27-3.76,3.22-2,4.95-2,2.06,0,3.22,2.26,1.93,3.49-2,1.85-1.17,3.49-.26,5.68C3606.29,1276.72,3604.82,1268.93,3602.06,1276.66Z"/><path class="cls-18" d="M3607.67,1270.3a1.78,1.78,0,0,1-1.9,1.71c-1,0-2,.06-2.19-1.3s.56-1.77,1.71-1.79A2.15,2.15,0,0,1,3607.67,1270.3Z"/><path class="cls-19" d="M1363.94,875.85c-23.94-8.11-52.09,5.56-59.61,29-6.21,19.38,7.32,40.44,26.79,41.67-.17-1.34-1.38-1.83-2.18-2.61-13-12.72-16.08-30.37-8.21-46.75,10.34-21.5,36.75-25.86,51.92-8.25,9.15,10.62,10.8,23.36,7.89,36.71-3.35,15.3-14.33,25.37-30.14,25.83-24.29.71-48.62.23-72.93.37-4.07,0-3.46-2.63-3.46-5.07,0-21.65-.18-43.3.11-65,.07-5.38-2.87-4.82-6.29-4.85s-6.32-.37-6.25,4.91c.27,23.15.19,46.3,0,69.45,0,3.84,1,5.11,5,5.09,28.64-.18,57.28-.07,85.92-.11a43.43,43.43,0,0,0,23.65-6.77c15.84-10,23.44-30.88,16.65-48C1387.59,888.26,1377.2,880.33,1363.94,875.85Z"/><path class="cls-20" d="M1061.31,917.27c13.71-5.18,18.65-20.21,10-30.65-4.69-5.65-10.82-9.09-18.14-9.26-14.49-.34-29-.13-43.47-.24-2.54,0-3.56.84-3.55,3.44q.08,36.23,0,72.46c0,2.25.62,3.48,3.1,3.28a20.42,20.42,0,0,1,4.49,0c3.81.53,4.87-1.08,4.77-4.77-.24-8.32.17-16.66-.17-25-.2-4.79.81-7.16,6.22-6.46a58.6,58.6,0,0,0,11.47,0c3.35-.24,5.56,1,7.6,3.57,7.81,10,15.8,19.78,23.73,29.63,1.13,1.41,2.08,3,4.31,2.95,4.12-.09,8.23,0,13.68,0-9.32-11.21-17.7-21.32-26.11-31.41C1054.91,919.68,1054.9,919.69,1061.31,917.27Zm-40-1.56c-2.57,0-2.94-1.49-2.92-3.57.06-4.49,0-9,0-13.47,0-4.65.12-9.31,0-14-.1-3.1,1.55-3.47,4.06-3.44,8.31.09,16.63-.08,24.93.09,9.06.18,15.45,6.37,16,15.19.62,9.48-5.29,17.59-14.19,18.71C1039.92,916.43,1030.58,915.55,1021.28,915.71Z"/><path class="cls-19" d="M1475.92,952.57q.06-35.73,0-71.47c0-1.7.54-3.86-2.42-3.94-3.3-.08-2.69,2.31-2.69,4.17,0,15.16,0,30.32,0,45.48,0,1.93.47,4-1,6.63-3.9-4.34-7.46-8.27-11-12.22-12.09-13.55-24.35-27-36.15-40.74-3.56-4.15-7.79-3.87-11.75-3-3.64.84-1.67,4.87-1.69,7.36-.17,22.16-.13,44.32,0,66.48,0,1.78-1.39,4.77,2.35,4.86,4.07.1,2.7-3.1,2.71-5.07.1-18,0-36,.1-54,0-1.69-.73-3.63.89-5.15,2.17,1,3.26,2.9,4.67,4.48q25.73,28.61,51.42,57.26c1,1.07,1.8,2.73,3.57,2.24S1475.92,953.78,1475.92,952.57Z"/><path class="cls-19" d="M1154.94,952.05c-13-.09-26-.22-38.94,0-4.28.09-5.4-1.4-5.26-5.44.27-7.81.24-15.65,0-23.46-.12-3.81.88-5.33,5-5.16,7.47.32,15,.13,22.46.06,1.83,0,4.44.73,4.28-2.54-.13-2.89-2.52-2.12-4.18-2.13-7.65-.07-15.31-.17-23,0-3.31.08-4.31-1.07-4.22-4.29.18-7.48.32-15,0-22.46-.22-4.48,1.25-5.63,5.61-5.52,12,.3,24,.12,36,.05,1.11,0,3.06.8,3-1.35a2.6,2.6,0,0,0-2.93-2.71c-.67,0-1.34,0-2,0-15.81,0-31.63.08-47.44-.07-3.4,0-4.66.9-4.64,4.47q.19,35.21,0,70.41c0,3.64,1.33,4.46,4.66,4.39,8.48-.19,17-.06,25.46-.07,8.66,0,17.31,0,26,0,2.28,0,4.42-.57,4.27-3S1156.37,952.06,1154.94,952.05Z"/><path class="cls-19" d="M1246.8,877.36c-1.34-.51-3-.6-4,1-.58,1-1.08,2.06-1.56,3.12q-12.29,26.81-24.59,53.6c-.73,1.58-1,3.53-2.83,4.52-1.72-1.11-2.06-3-2.84-4.63-8.11-16.62-16.54-33.09-24-50-3-6.66-6.76-8.89-13.61-8-3.12.4-3.75,1-2.33,3.83q17.94,36.28,35.72,72.65c.67,1.35,1.2,2.72,3.12,2.77s2.53-1.29,3.17-2.66q17-36.47,33.91-73C1247.41,879.65,1248.87,878.15,1246.8,877.36Z"/><path d="M1782.34,84.58c-2.27-1.94-3.57-2.91-4.7-4-11-11.11-21.91-22.34-33.06-33.31-2.71-2.67-2.53-4.07.12-6.63,9.21-8.91,18.16-18.09,27.15-27.22.68-.68,2.11-1.07,1.68-2.5-3-.85-5,.34-7,2.5-4.64,5-9.52,9.77-14.33,14.61-5.92,5.95-11.85,11.88-18.66,18.71,0-11.3-.26-21.38.12-31.44.17-4.35-1.6-4.91-5.12-4.64-3,.23-5.91-.87-5.82,4.45.34,21.46.24,42.94,0,64.4,0,4.26.81,5.57,5.34,5.58,4.75,0,6.06-1.48,5.55-5.88a74.91,74.91,0,0,1-.06-8.48V53.11l2-1.14c8.43,9,17.36,17.5,25.13,27C1766.47,86.06,1773.39,84.92,1782.34,84.58Z"/><path d="M1670.54,47.76c4,.45,8,.51,12,.63,10.44.31,17.33,6.69,17.2,16-.13,9-7.14,15.37-17.27,15.44-7.66.06-15.33,0-23,0-1.55,0-3.46-.55-3.58,2.16-.14,3.11,2,2.44,3.73,2.45,5.49,0,11,0,16.49,0s11,.11,16.49,0c11.84-.32,20.89-9.4,20.69-20.59S1704,44,1692.53,43.75c-3.66-.1-7.33-.06-11-.16-9.06-.25-15.37-6.08-15.47-14.26-.1-8.34,6.45-14.54,15.6-14.66,5.83-.08,11.66,0,17.49,0,1.53,0,3.08.13,3.13-2.14,0-2.53-1.81-1.92-3.15-1.92-9,0-18-.17-27,0-9.64.22-17.53,8.38-17.84,18.09A18.68,18.68,0,0,0,1670.54,47.76Z"/><path d="M1822.43,84.9c3.27,0,2.13-2.39,2.14-3.92.08-11.48,0-23,0-34.46v-12c11.38,13.66,21.82,26.13,32.19,38.66,4.77,5.77,10.31,10.32,17.66,12.44,2.91.84,4.1.62,4-2.94-.23-10.48-.16-21,0-31.46,0-3-1.12-4.93-4.23-7V72.35c-4.22-1.19-6.44-3.87-8.63-6.52Q1852.27,49.63,1839,33.4c-6-7.24-11.92-14.44-18.49-22.4-.16,1.95-.28,2.74-.28,3.53q0,33.21,0,66.42C1820.28,82.5,1819.23,84.88,1822.43,84.9Z"/><path d="M1875.57,30.47c13,15.6,25.87,31.26,38.9,46.82,3.51,4.19,8.35,6.45,13.45,8.25,3.37,1.18,4.44.57,4.4-3.29-.19-20.13-.09-40.26-.09-60.4,0-3,0-6,0-9,0-1.33-.25-2.2-1.89-2.23s-2.51.48-2.4,2.25c.08,1.16,0,2.33,0,3.5V72.07c-5.25-1.14-7.61-5.17-10.37-8.52-13.57-16.41-27-32.92-40.53-49.37-.63-.76-.9-2.25-2.72-1.8,0,4.79,0,9.61,0,14.43A5.34,5.34,0,0,0,1875.57,30.47Z"/><path d="M1796.17,83.83c2.75,1.45,4.54,1.7,4.47-2.51-.19-11.13-.06-22.26-.07-33.39,0-11.29-.07-22.59,0-33.88,0-2.49-.47-3.78-3.24-3.43a24,24,0,0,1-4.48,0c-2-.13-3,.33-3,2.68.1,19.93,0,39.86.17,59.8C1790.09,77.58,1791.86,81.56,1796.17,83.83Z"/><path d="M1910.59,107.35l19.55,18.7c0-8.8-.14-16.26.11-23.7,0-1.64.36-2.32-1.62-2.42-2.45-.11-1.94.94-1.78,2.68.31,3.57.09,7.18.09,11.94-1.91-1.63-2.8-2.34-3.64-3.12q-5.47-5.1-10.92-10.24c-1.37-1.29-3-1.32-4.67-1.15-1.23.13-.89,1-.88,1.82.08,7,.31,14,0,20.94-.1,2.38,1.07,1.9,2.29,2,1.68.13,1.76-.3,1.59-2.15C1910.3,117.83,1910.59,113,1910.59,107.35Z"/><path d="M1893.07,121c1.39,5.48,5.27,3.55,8.77,3.54-4.93-8.2-9.64-16-14.59-24.3l-15,24.15c2.72.9,4.64.52,5.42-2.7.49-2,2.12-2.73,4.26-2.59,2.48.18,5,.12,7.48.09C1891,119.18,1892.63,119.27,1893.07,121Zm-4.28-4.87c-.92,1.2-6,1.39-6.7-.26-1.15-2.81,2.29-4.82,3.89-8.34C1887,111.39,1890.94,113.33,1888.79,116.14Z"/><path d="M1804.05,100.16c-3.57-.49-5.65.88-6.17,5.43,2.77-2.52,5.71-2.33,8.63-2.34,1.28,0,2.34.15,2.26,1.81-.29,6.44.73,12.92-.69,19.34h7.28c-1.45-4.89-.66-9.55-.75-14.13-.14-7.64,1.14-8.51,8.55-6.34.72.21,1.36,1.06,3.83-1C1819.19,98.09,1811.23,101.15,1804.05,100.16Z"/><path d="M1863.8,124.36c-1.63-5.16-.61-10.42-.73-15.63-.13-5.8.55-6.26,6.23-5.36a7.33,7.33,0,0,1,4.34,2.33c-.86-5.33-.86-5.39-4.78-5.42-5.83-.06-11.66.11-17.49-.08-3.11-.1-4.48,1.22-4.94,5.09,2.85-2.05,5.6-2.08,8.37-2,1.3,0,2.38.26,2.35,1.85-.11,6.37.47,12.76-.64,19.25Z"/><path d="M1835.2,100.28c-1.37-.08-3-.82-2.75,2.29.51,7.23.17,14.53.17,21.75h5.88c0-7.36-.26-14.56.11-21.72C1838.79,99.11,1836.64,100.35,1835.2,100.28Z"/><path d="M1779.46,109.52c1.36-3.37,1-6.37-1.87-8.85-3.2-.61-7.28.3-8-5-1.31,5.06-.68,9.81-.84,14.51,0,1,.46,1.64,1.45,1.59C1773.44,111.6,1777,112.78,1779.46,109.52Zm-5.43.18c-2.62.06-3.28-1.41-3.27-3.78s.59-3.91,3.33-3.79c2.31.17,4.21,1.13,4.17,3.78S1776.52,109.65,1774,109.7Z"/><path d="M1781.06,102.17c.57,1.47,1.11,3,1.66,4.42,3.35,3.6,2.36,6.25-3.16,8.17,3.77,1.07,6.23.64,7.41-1.49a118,118,0,0,0,5-11.38c.3-.7.16-1.45-.59-1.55a1.92,1.92,0,0,0-1.59.79c-1.06,2.14-2,4.35-3.19,7.2l-3.87-7.86C1781.45,100.34,1780.36,100.37,1781.06,102.17Z"/><path d="M1547.16,0c-36-1.15-67.51,30.2-68.32,66.76-.83,38,31.81,69.76,67.6,69.75,36.18,0,68.61-29,68.69-68.56C1615.21,29.14,1582.67-.79,1547.16,0Zm-37.39,70.23c.35-15.13,6.47-31.58,24.23-37.64,16.29-5.55,35.56,1.14,44.32,15.31a5.11,5.11,0,0,1,.27,1.33c-5.24.29-9.75.63-14.62-3.17-16.07-12.55-37.49-5.67-43.47,13.3-1.12,3.58-.68,5.39,3.6,4.72a33.22,33.22,0,0,1,5,0c10.33,0,10.33,0,18.27,8.47-12.42,0-23.84,0-35.26,0C1510.46,72.56,1509.73,72.09,1509.77,70.26Zm48.86,33.7c-16,5.07-36.17-2.33-43.1-15.83,0-.11.09-.31.24-.82,4.88-.25,9.29-.68,14,3.13,15.5,12.6,37.83,5.33,44-13.7,1.15-3.51.16-4.61-3.27-4.23a19,19,0,0,1-2,0c-9.45,0-9.45,0-16.63-8.43h29.71c1.5,0,2.32.38,2.58,2.19C1586.1,79.88,1572.91,99.42,1558.63,104Z"/><path class="cls-21" d="M1547.36,72.54c-7.94-8.47-7.94-8.47-18.27-8.47a33.22,33.22,0,0,0-5,0c-4.28.67-4.72-1.14-3.6-4.72,6-19,27.4-25.85,43.47-13.3,4.87,3.8,9.38,3.46,14.62,3.17a5.11,5.11,0,0,0-.27-1.33c-8.76-14.17-28-20.86-44.32-15.31-17.76,6.06-23.88,22.51-24.23,37.64,0,1.83.69,2.3,2.33,2.3C1523.52,72.53,1534.94,72.54,1547.36,72.54Z"/><path class="cls-22" d="M1581.6,64.08h-29.71c7.18,8.42,7.18,8.42,16.63,8.43a19,19,0,0,0,2,0c3.43-.38,4.42.72,3.27,4.23-6.21,19-28.54,26.3-44,13.7-4.69-3.81-9.1-3.38-14-3.13-.15.51-.29.71-.24.82,6.93,13.5,27.1,20.9,43.1,15.83,14.28-4.54,27.47-24.08,25.55-37.69C1583.92,64.46,1583.1,64.08,1581.6,64.08Z"/><path class="cls-23" d="M2216.21,1965.21q0-123.86-.05-247.7c0-1.88.42-2.3,2.3-2.3q247.7.07,495.4,0c1.88,0,2.3.42,2.3,2.3q-.07,247.7,0,495.4c0,1.88-.42,2.3-2.3,2.3q-247.7-.08-495.4,0c-1.88,0-2.3-.42-2.3-2.3Q2216.24,2089.07,2216.21,1965.21Z"/><path class="cls-24" d="M2466.59,1736.11q113.22,0,226.43,0c2.19,0,2.8.46,2.8,2.75q-.09,176.2,0,352.4,0,50.61,0,101.22c0,1.91-.44,2.45-2.4,2.45q-224.19-.08-448.37-.07c-2.63,0-6.16,1.07-7.64-.47-1.3-1.36-.38-4.89-.38-7.46q0-224.19,0-448.37c0-1.92.41-2.46,2.42-2.46q113.58.08,227.18,0Z"/><path class="cls-25" d="M2237.72,2190.17q0-3.87,0-7.75v-440.3c0-.83,0-1.66,0-2.5-.07-2,.88-2.93,2.87-2.86.58,0,1.16,0,1.74,0h447.55c.92,0,1.83,0,2.75,0a5,5,0,0,1,2,4.35c0,1,0,2,0,3v439.65a52.3,52.3,0,0,0,.17,5.73c.25,2.28-.92,4-2.9,3.81-2.53-.19-4.95.37-7.44.37q-216.82,0-433.65,0c-2.91,0-5.81-.39-8.73-.26C2239.75,2193.51,2238.71,2191.87,2237.72,2190.17Z"/><path class="cls-26" d="M2237.72,2190.17c4.15,3.61,9.32,2.92,14.11,2.93q215.91.12,431.82.13c2.88,0,5.52-1.36,8.52-.81,1.44.26,2.64-1.36,2.19-3.19a16.6,16.6,0,0,1-.24-4q0-215.91,0-431.82c0-5.57,1.06-11.29-1.47-16.66,2.92-.51,2.51,1.52,2.51,3.26V2190.6c0,3.33-.27,3.57-3.54,3.57H2241.77C2237.67,2194.16,2237.67,2194.16,2237.72,2190.17Z"/><path class="cls-26" d="M2307.69,1745.25h369.13a11.24,11.24,0,0,0,4.61-.71,4.36,4.36,0,0,1,6,4.37c0,1.56.22,3.14.22,4.71q0,211.56,0,423.12c0,2.31-.5,4.58-.11,6.92a2.59,2.59,0,0,1-3.2,2.8,17.77,17.77,0,0,0-4-.27q-212.07,0-424.12,0c-2.35,0-4.61.64-6.95.55-1,0-2,.09-2.6-1a6.59,6.59,0,0,1,3-.21q215.78,0,431.55,0c.85,0,1.78-.35,2.22,0a16.35,16.35,0,0,0-2.12,0q-215.52,0-431.06,0c-1,0-2.27.69-3-.68a2.91,2.91,0,0,1,2.66-1.06c1.58,0,3.16,0,4.75,0h424.15c5.75,0,5.75,0,5.75-5.7V1753c0-5.69,0-5.69-5.76-5.69q-212.84,0-425.66,0c-1.93,0-4,.63-5.78-.87-.27-.5-.08-.78.43-.87a11,11,0,0,1,2,0q27.61,0,55.21,0A5.29,5.29,0,0,0,2307.69,1745.25Z"/><path class="cls-27" d="M2247.19,2184.68c1,.89,2.23.48,3.35.48q211.2,0,422.38,0h11.83a3.79,3.79,0,0,1-2.68.47q-216.56,0-433.12,0c-.75,0-1.5,0-2.25,0-.89-1.19-.49-2.58-.49-3.87q0-208.26,0-416.53,0-9,0-18c-.4-2-.05-2.36,2-2h59.49c-1,.79-2.08.46-3.12.46l-54.29,0c-1,0-2.17-.36-3.09.48l.12.49a18.47,18.47,0,0,1,.13,3.49q0,215.25,0,430.51a18.47,18.47,0,0,1-.13,3.49Z"/><path class="cls-26" d="M2248.2,1745.24c-1.38,0-2,.63-2,2-.93-.58-1.34-1.34-.41-2.16C2246.54,1744.4,2247.48,1743.92,2248.2,1745.24Z"/><path class="cls-23" d="M2247.19,1746.22q217.83,0,435.66,0c2.26,0,2.83.57,2.83,2.83q-.09,216.45,0,432.91c0,1.65.21,2.85-2.29,2.85q-218.08-.12-436.16-.08h0a5.76,5.76,0,0,1-.22-2.7q0-216.52,0-433a6.08,6.08,0,0,1,.21-2.71Z"/><path class="cls-25" d="M2247.17,1746.24q0,216.46,0,432.94c0,1.84,0,3.67,0,5.5-.81-.84-.46-1.9-.46-2.86q0-203.37,0-406.74c0-8.66,0-17.32,0-26C2246.7,1748.14,2246.36,1747.08,2247.17,1746.24Z"/><path class="cls-28" d="M2505.12,1844.69c.43,13.91-1.77,27-11.17,38.08a51,51,0,0,1-16.15,12.76c-.9.45-1.74.62-1.14,2.08,2.55,6.13,5,12.31,7.52,18.75a16.68,16.68,0,0,0,2.27-4.66q13.55-33.39,27-66.82c.65-1.6,1.39-2.25,3.2-2.2,5,.15,10,.06,15.41.06l-48,115c-7.57-18.55-15-36.67-22.31-54.85-.88-2.18-1.92-2.77-4.17-2.62-28.58,1.9-52.69-20.81-56.34-47.13-4.1-29.57,15.44-57.5,44.68-62.77,19.74-3.56,36.88,2,50.83,16.68,3.88,4.09,3.92,4.05-.11,7.9-2.05,2-4.17,3.84-6.1,5.89-1.16,1.23-1.74,1.16-2.78-.16-5.73-7.21-12.69-12.68-21.83-14.93a39.49,39.49,0,0,0-48,30.36c-4.53,22.13,7.93,42.4,29.65,48.19a22.24,22.24,0,0,0,6.84.86l-17.29-42.46c5.76,0,11.16,0,16.57,0,1.42,0,1.54,1,1.89,1.9,4.7,11.73,9.42,23.45,14,35.22.73,1.89,1.35,1.89,2.85.92,7.58-4.87,13.1-11.2,15-20.28.4-1.91.26-2.67-2-2.61-5.49.15-11,0-16.49.09a2,2,0,0,1-2.36-1.52c-1.18-3.28-2.51-6.51-3.79-9.75a1.92,1.92,0,0,0-.23-1.43c-.6-1.46.25-2,1.46-2.22a9.18,9.18,0,0,1,1.74,0c10.14,0,20.27,0,30.41,0,2.32,0,4.64.35,7,.23A1.78,1.78,0,0,1,2505.12,1844.69Z"/><path class="cls-28" d="M2438.24,2096.43c0-12.07,0-24.15,0-36.23,0-1.81.36-2.48,2.3-2.42,7.47.22,15-.53,22.37,1.44,14,3.73,19.45,22.26,9.74,33-1,1.14-1.21,1.56.41,2.33,8.54,4.07,12.64,12.53,11.16,22.66-1.22,8.34-8.74,16-17.07,17.47-9.1,1.61-18.28.66-27.42,1-1.84.06-1.42-1.23-1.43-2.23q0-14.49,0-29Z"/><path class="cls-29" d="M2558.62,2004.64c0,20-16.29,35.89-36.65,35.94-17.53.05-36.41-13.79-36.18-36.62.19-19.52,16.51-35.64,36.53-35.62A36.12,36.12,0,0,1,2558.62,2004.64Z"/><path class="cls-28" d="M2384.93,2003.51c.48-20.2,17.24-35.65,37.9-35.19,18.6.41,35.72,17.16,34.89,37.77-.79,19.43-17.7,35.16-37.9,34.48C2402,2040,2384.21,2025.6,2384.93,2003.51Z"/><path class="cls-29" d="M2356.58,2008.23c0,23.71-22.46,38.06-44.36,30.32-15.42-5.45-24.94-20.93-23.45-37.31a36,36,0,0,1,29.57-32.39c13.78-2.36,25.2,2.15,34.4,12.57.71.8.82,1.23,0,2a68.51,68.51,0,0,0-5.25,5c-1.13,1.24-1.65,1-2.61-.19-3.85-4.8-8.64-8.27-14.81-9.45-16.16-3.11-30.43,8.76-30.84,25.37s14.78,27.77,27.17,26.57c8.65-.84,16.44-7.19,18.52-15.45a4.71,4.71,0,0,0,.13-2.44c-3.35-.73-6.76-.13-10.13-.33-2.06-.13-4.62.84-6-.41s-.26-3.75-.38-5.7c-.19-2.87-.11-2.88,2.64-2.88,7.58,0,15.16.06,22.73,0,2,0,2.93.47,2.62,2.59A4.7,4.7,0,0,0,2356.58,2008.23Z"/><path class="cls-30" d="M2531.82,2068.76c-.06,5.83-.09,11.65-.19,17.47,0,1.66,1.08,1.36,2,1.36,8.66,0,17.32.07,26,0,1.86,0,2.5.39,2.34,2.31a45.94,45.94,0,0,0,0,6.74c.1,1.66-.43,2.09-2.08,2.07-8.66-.09-17.32,0-26-.09-1.91,0-2.33.52-2.3,2.35q.17,10.61,0,21.23c0,1.92.41,2.53,2.44,2.51,8.82-.12,17.65,0,26.47-.1,1.8,0,2.52.33,2.35,2.29a64.75,64.75,0,0,0,0,7.24c0,1.2-.41,1.57-1.59,1.57q-19.86-.06-39.72,0c-1.67,0-1.66-.9-1.66-2v-11.74q0-31,0-62c0-.57-.14-1.17.3-1.67,13.23-.16,26.46,0,39.7-.08,1.76,0,2.64.57,2.56,2.45s0,4,0,6c0,1.24-.54,1.84-1.8,1.82-8.4-.1-16.8.19-25.2-.15C2534.18,2068.24,2532.9,2067.81,2531.82,2068.76Z"/><path class="cls-29" d="M2621.63,2056.33c9,0,15.51,4.22,20.29,11.55.69,1,.89,1.75-.54,2.47a55.53,55.53,0,0,0-6.43,3.82c-1.25.85-1.85.81-2.63-.59-3-5.29-7.65-6.79-13.37-5.88-4.3.68-7.78,4-8.36,7.81s1,6.3,3.87,8.3c3.6,2.48,7.79,3.69,11.76,5.37,5.89,2.49,11.62,5.28,15.19,10.86,7.82,12.23,2.61,33.49-17.23,36.63-6.78,1.07-13.29.1-19-4-6-4.21-8.61-10.37-10-17.25-.17-.84,0-1.41,1-1.62q4.76-1,9.5-2.09c1-.21,1.37.05,1.49,1a28.65,28.65,0,0,0,.66,3.68c1.5,6,5.7,9.32,12.05,9.58a12.48,12.48,0,0,0,12.47-8.51c1.94-5.94.08-11.4-5.08-14.84-5-3.31-10.8-4.72-16-7.48-5.6-3-10.34-6.77-12.05-13.24-2.77-10.43,3.22-20.82,13.9-24.27A28.78,28.78,0,0,1,2621.63,2056.33Z"/><path class="cls-28" d="M2605.61,1969.78c12.4-.41,23.4,2.67,31.47,12.84,5.73,7.23,7.53,15.64,7,24.62-1,16-11.95,28.44-27.72,31.23-8.31,1.47-16.77.74-25.17.66-.74-.85-.5-1.89-.5-2.87q0-31.65,0-63.3c0-3,0-3,3-3C2597.65,1969.88,2601.63,1970.2,2605.61,1969.78Z"/><path class="cls-28" d="M2322.43,2111.51l16.68-41.27c1.46-3.62,3-7.2,4.38-10.85a2.09,2.09,0,0,1,2.36-1.62c2.91.1,5.84.17,8.74,0,2.09-.12,2.34.38,1.55,2.26q-9,21.24-17.79,42.53l-15.68,37.74a9.39,9.39,0,0,1-.61,1c-1.67-4-3.27-7.74-4.8-11.51q-14.25-35-28.51-69.91c-.66-1.63-.62-2.18,1.34-2.06a39.76,39.76,0,0,0,7.48,0c2.7-.34,3.71.9,4.6,3.16,6.47,16.46,13,32.88,19.6,49.31C2321.89,2110.51,2322.06,2110.79,2322.43,2111.51Z"/><path class="cls-31" d="M2399.08,2097c0,12.08,0,24.15.05,36.22,0,1.93-.42,2.68-2.46,2.52a44.09,44.09,0,0,0-7,0c-2,.14-2.53-.48-2.51-2.49.1-11.24,0-22.48,0-33.72,0-13.07,0-26.14,0-39.21,0-1.95.45-2.66,2.47-2.51a46.47,46.47,0,0,0,7,0c2-.14,2.53.48,2.51,2.47C2399,2072.47,2399.08,2084.71,2399.08,2097Z"/><path class="cls-32" d="M2605.61,1969.78c-3.52.92-7.1.27-10.65.38-3.82.13-3.83,0-3.83,3.78q0,32.6,0,65.19c-1.74-.24-.8-1.59-.8-2.33-.07-16.89,0-33.78,0-50.67,0-4.83,0-9.66,0-14.48,0-1.47.25-2,1.88-2C2596.62,1969.8,2601.12,1969.75,2605.61,1969.78Z"/><path class="cls-33" d="M2531.82,2068.76c-.8-1.13.21-1.05.77-1,1.74.09,3.47.41,5.21.42,7.16.05,14.33,0,21.49.06,2.19,0,2.94-.75,2.88-2.91-.19-7.73,1-6.56-6.64-6.6-10.83-.06-21.66,0-32.49,0-1,0-2,.27-2.89-.43l.06-.1a2.63,2.63,0,0,1,1.46-.21h39.4a3,3,0,0,1,1.47.19c.53,3.21.06,6.45.25,9.67.07,1.18-.76,1-1.51,1Z"/><path class="cls-34" d="M2356.58,2008.23a1.73,1.73,0,0,1-.24-.44c-.8-4.08-.79-4.08-5.11-4.08-6.56,0-13.13.07-19.69,0-2.1,0-2.93.47-2.9,2.76.08,5.78,0,5.88,5.8,5.75,3.45-.08,6.92.52,10.36-.41.59-.16.66.55.23,1-5.15,0-10.3,0-15.44.1-1.37,0-1.72-.51-1.68-1.75.06-2.16.09-4.32,0-6.48-.07-1.39.54-1.64,1.77-1.63,8.38,0,16.77,0,25.16,0,1.61,0,2,.53,1.87,2C2356.57,2006.06,2356.61,2007.15,2356.58,2008.23Z"/><path class="cls-35" d="M2505.12,1844.69a3.39,3.39,0,0,0-2.67-1c-10.93-.8-21.87-.31-32.8-.45h-2.73c-3.76,0-3.76,0-4.13,3.43-1.86-4-1.86-4,2.49-4q18.93,0,37.86,0C2504.6,1842.71,2505.66,1842.83,2505.12,1844.69Z"/><path class="cls-30" d="M2562.54,2058.14l-42.33,0c.43-.6,1.06-.35,1.6-.35q19.56,0,39.1,0C2561.46,2057.8,2562.08,2057.6,2562.54,2058.14Z"/><path class="cls-23" d="M2450.12,2112.93c0-3.41,0-6.82,0-10.23,0-.68-.26-1.6,1-1.57,4.88.14,9.83-.51,14.55,1.35,4.26,1.68,6.71,4.73,7.1,9.33.43,5-1.56,8.78-6.06,11-5,2.48-10.41,1.69-15.7,1.76-1.22,0-.84-1-.85-1.68C2450.1,2119.59,2450.12,2116.26,2450.12,2112.93Z"/><path class="cls-23" d="M2454.1,2068.68a15.3,15.3,0,0,1,5.84.91,8.63,8.63,0,0,1,4.67,3.53,11.5,11.5,0,0,1-8.73,18c-5.76.47-5.76.47-5.76-5.22v-13.45C2450.11,2068.66,2450.11,2068.66,2454.1,2068.68Z"/><path class="cls-23" d="M2496.55,2004.28c0-14.62,11.16-26,25.51-26,14.72,0,25.89,11.25,25.93,26.2a25.69,25.69,0,0,1-26,26.23C2507.7,2030.65,2496.56,2019.11,2496.55,2004.28Z"/><path class="cls-23" d="M2421.18,2030.67c-14.08.06-25.25-11.49-25.66-25.81-.41-14.63,11.5-26.6,25.31-26.63,15,0,26.18,11.13,26.24,26.14A25.75,25.75,0,0,1,2421.18,2030.67Z"/><path class="cls-23" d="M2600.78,2004.42c0-7.49,0-15,0-22.47,0-1.75.29-2.45,2.27-2.41,5.16.12,10.28.2,15.25,1.92,10.39,3.62,16.18,13.68,15.19,25.38s-8.92,20.05-19.81,21.91c-3.56.61-7.13.42-10.69.65-1.81.12-2.23-.57-2.21-2.26.08-7.57,0-15.15,0-22.72Z"/><path class="cls-36" d="M1615.53,1927.94c-.54-11.94-6.17-18.23-17.1-19.67-6.42-.84-11.1,2.39-15.28,7-5.43-7.38-12.63-8.43-20.6-6-7.7,2.37-11.6,8.12-12.31,15.88-.51,5.62-.44,11.3-.44,16.95,0,8,3.42,11.09,11.38,10.85,2.57-.07,3.43-.79,3.37-3.45-.18-7.49-.06-15-.06-22.48,0-3.84,1.39-6.69,5.69-6.53s5.55,2.94,5.5,6.81c-.07,5.16,0,10.32,0,15.48,0,7.85,2.33,10,10,10.2,3.38.09,4.19-1,4.1-4.21-.21-7.32-.07-14.65-.06-22,0-3.66,1.56-6.25,5.45-6.3s5.66,2.29,5.69,6.07c0,5.32,0,10.65.09,16,.17,8.44,3.41,11.12,11.94,10.42,2.23-.18,2.77-1,2.74-3C1615.55,1942.59,1615.86,1935.25,1615.53,1927.94Z"/><path class="cls-36" d="M1732.86,1925.24c-.68-7.46-4.11-13.1-11.12-15.75s-13.78-1.88-19.15,4.08c-1.25,1.39-1.94,1.87-3.3,0-6.1-8.46-22.64-6.86-28.13,2.45-5.91,10-3.73,21.2-2.65,32a3,3,0,0,0,.61,1.35c2.9,4,7.28,4.09,11.31,3.33,3.64-.68,1.36-4.21,1.49-6.32.4-6.8.21-13.63.39-20.45.08-3.23,1.73-5.4,5.17-5.5,3.66-.1,5.42,2.1,5.82,5.51a39.37,39.37,0,0,1,.14,4.48c0,5.16-.13,10.33.16,15.47.31,5.31,3.49,7.09,10.47,7,6,0,3-4.31,3.4-6.77s.1-5.31.1-8c0-3.49.06-7,0-10.48-.08-3.89.78-7.27,5.45-7.23,4.47,0,5.75,3.16,5.71,7.17-.06,5.82-.16,11.65,0,17.47s8.47,10.35,13.42,7.59c1.1-.62,1.06-1.61,1-2.57C1733.05,1941.86,1733.62,1933.55,1732.86,1925.24Z"/><path class="cls-37" d="M1980.57,1926.93c.06-7.33-2.2-13.56-9-17.06-6.57-3.39-12.8-2-19,3.47,0-3.65,0-6.3,0-8.95-.06-6.78-2.94-9.64-9.55-10-3.37-.2-4.64.7-4.59,4.35.21,14.63.08,29.27.1,43.91,0,7.66,2.91,10.33,10.61,10.44,3.06,0,4.11-.92,4-4-.15-6.65-.08-13.3,0-20,0-6.11,2-8.71,6.39-8.79,4.14-.08,6.48,2.85,6.68,8.73.14,4.48,0,9,0,13.47,0,8.4,2.39,10.56,10.7,10.51,2.83,0,3.72-.84,3.66-3.67C1980.45,1941.9,1980.51,1934.41,1980.57,1926.93Z"/><path class="cls-37" d="M1794,1911.8c-9,6.81-12.35,20.76-7.2,31,4.73,9.45,16.83,13.83,28,10.14,6.46-2.13,8.41-5.45,7.31-12.45-12.48,4.2-20.3,3-22.82-3.5,2.76-.9,5.6-.19,8.37-.47a79.93,79.93,0,0,0,8.91-1c7.18-1.52,9.7-6,8.58-13.15C1822.93,1907.92,1803.52,1904.6,1794,1911.8Zm17.63,11.92c-.65,4.43-5.19,2.65-8.24,3.38-1.45-.92-4.22,1.43-4.68-1.82-.37-2.65,3.49-6,6.87-5.92C1808.58,1919.41,1812.15,1920.36,1811.66,1923.72Z"/><path class="cls-37" d="M1844.24,1908.67c-7.16,1.29-13.3,5.5-11.28,15.41,5.79-4.73,12-4.95,18.4-4.11,2.15.28,3.39,1.47,3.46,3.56.08,2.62-2,2.13-3.6,2.2-4.33.19-8.62.52-12.62,2.42a12.85,12.85,0,0,0-3.46,21.2c6,5.67,22.19,6.35,28.65,1.24a12.3,12.3,0,0,0,4.44-7.57,69.56,69.56,0,0,0,1-13.91C1869.05,1913.19,1860.05,1905.83,1844.24,1908.67Zm11.25,29.13c-.31,3.16-1.33,5.53-5,5.57-2.82,0-5.8-.47-5.61-4,.2-4,3.71-4,6.13-4.32C1853.52,1935.07,1855.81,1934.42,1855.49,1937.8Z"/><path class="cls-36" d="M1650.93,1910.07c-5.37-2.39-10.94-2.45-16.61-1.13-8.19,1.92-11.06,6-10.14,15.17,5.35-4.55,11.49-4.95,17.89-4.23,2.48.28,4.3,1.38,4.27,3.92,0,3-2.62,1.92-4.21,2a32.93,32.93,0,0,0-10.75,1.73c-5.72,2.09-8.72,6.14-8.89,11.9-.18,5.92,2.34,10.13,8,12.54,7,3,14.27,2.79,21.42.41,4.56-1.51,7-5.18,7.69-9.63a64.55,64.55,0,0,0,.13-21.35A14.44,14.44,0,0,0,1650.93,1910.07Zm-4.23,28.14c-.19,3.51-2,5.29-5.25,5.27-2.52,0-5.43-.78-5.21-4,.29-4.24,3.83-4.33,7.64-4.5C1645.9,1934.54,1646.84,1935.5,1646.7,1938.21Z"/><path class="cls-36" d="M1753.14,1908.8c-9.24,1.74-12.05,5.45-11.18,15.23,5.51-4.73,11.86-4.86,18.4-4.09a3.72,3.72,0,0,1,3.6,4c0,2.74-2.34,1.77-3.77,1.8-4.7.07-9.3.56-13.51,2.86a13,13,0,0,0-2.85,20.41c6.17,6.16,22.87,6.88,29.38,1.18a8.81,8.81,0,0,0,2.65-3.55c3.12-9.39,3.54-19.09.49-28.4C1773.58,1909.84,1764.52,1906.65,1753.14,1908.8Zm11.34,29.32c-.28,3.61-2.06,5.46-5.62,5.36-2.68-.08-5.31-1.19-5-4.19.39-4.08,4-4.15,8.13-4.4C1763.42,1934.63,1764.69,1935.31,1764.48,1938.12Z"/><path class="cls-37" d="M1927.92,1920.74c3.67.27,5.8-4.53,5.23-8.81s-3.92-2.58-5.87-2.4c-5.21.5-7.32-1.26-6.49-6.56.7-4.47-1.84-4.66-5-3.36-4.8,1.94-8.61,5.35-8.82,10.55a285.1,285.1,0,0,0,.22,30.94c.53,7.86,5.85,12,14.17,12.38,2-.27,4.52-.15,6.88-1.21,4.37-2,5-5.79,4.18-9.64-.81-3.6-3.76-.81-5.69-.89-3.58-.14-5.73-1.48-5.83-5.26,0-2,0-4,0-6C1920.69,1925.44,1919.42,1920.1,1927.92,1920.74Z"/><path class="cls-37" d="M1898.36,1909.14a15.36,15.36,0,0,0-20.89,9.5c-1.43,4.76-.43,9.6-.79,13.62,0,4.1-.12,7.44,0,10.76.29,6.63,4,9.91,10.55,10,2.56,0,3.54-.71,3.49-3.37-.14-7,0-14-.06-21s1.67-8.74,8.82-8.68c1.11,0,2.54,1.11,3.1-1.16A8.33,8.33,0,0,0,1898.36,1909.14Z"/><path class="cls-38" d="M1999.49,1899.27c-.07-1.94.36-4.62-1.69-5.35-2.62-.93-2,2.88-3.87,3.59a3.1,3.1,0,0,1-.27-.4c-.85-1.47-1.25-4.48-3.36-3.3s-2.34,4.86-1.41,6.81c1.7,3.59,1.83,0,2.59-1,.35-.45.71.14,1,.58,3,5.3,2.63-1,4.47-1.24.7,1-.24,2.82,1.38,2.91C2000.15,1902,1999.53,1900.24,1999.49,1899.27Z"/><path class="cls-39" d="M1985,1893.23c-1.33.16-2.7-.37-3.45.77-.89,1.33.62,1.47,1.25,2.07,1.7,1.61-.73,5.52,1.55,5.54,3,0,.23-4,2-5.57C1989.87,1892.82,1986.44,1893.54,1985,1893.23Z"/><path d="M1509.82,2243.1l-2,2.74.51,1.52,12.07-2.1-1.18,1.79c4.48,1.33,8.81,3,13.3,3.75,1.63.27,3.63-1.63,5.46-2.54a27.29,27.29,0,0,1,3.47-1.69c2.44,3.73,4.94,1,7.4.22,3.48-1.12,6.9-2.66,10.47-3.18s7.86-1,11.23.25a10.22,10.22,0,0,0,5.84.45c3.28-.54,6.77-.09,10.14.26,1.82.19,3.53,1.28,5.35,1.57,2,.33,4.2,0,6.25.34,3.79.61,7.51,1.78,11.31,2.16,3.2.31,6.49-.39,9.72-.26,6.31.25,12.6.86,18.91,1.14,3.11.13,6.24-.22,9.35-.23,3.85,0,8.11,1.22,11.49,0,15.08-5.48,25.8,4.79,38.14,9.18-4,.2-12.48,5-13,7.73l3.85.51c-4.33,1.54-8.74,2-13,2.9s-8.4,2.44-13.54,4a32.13,32.13,0,0,0,4.15,1.58c3.58.71,7.21,1.94,10.77,1.79,4.93-.22,9.8-2.18,14.7-2.18,7.18,0,14.43,2,21.51,1.45,8.41-.7,14.39,1.92,19.68,8.15a62.25,62.25,0,0,0,10.82,9.52c7.88,5.75,13.39,18.83,11.44,27.66-1.32,5.94-2.56,11.92-3.51,17.94-1.33,8.5-2.36,17.06-3.38,24.58-15.72,3.84-28.25-1.67-40.55-8.84-2.41-1.4-6.7-1.65-9.09-.42-2.78,1.42-4.69,4.89-6.42,7.81a6.11,6.11,0,0,0,0,5c1,2,2.73,3,5.38,1.62a5.88,5.88,0,0,1,5,.1c4.31,2.77,10,5,7.27,12.14-.25.68.31,1.64.27,2.45-.27,5.1-.24,10.25-1.11,15.25-.29,1.69-2.8,3.13-4.5,4.4a33.06,33.06,0,0,1-4.46,2.5l-4.6-3c0-.82.09-2,.14-3.14l-4,5.67-2.58-3.61-23.74,4.52a13.37,13.37,0,0,0-4-.42c-1.44.15-2.73,1.54-4.17,1.73-4.32.54-8.66-.5-13,1.6-3.07,1.47-7.42-.64-10.27,2.75-.15.19-.95-.28-1.39-.18-6.54,1.34-13.28-1.37-19.93,2-3.4,1.71-8.27.19-12.26,1.09-5.43,1.23-11.73.42-16.61,5.77h292c-2.93-1.94-4.57-3.65-6.53-4.2-4.27-1.19-8.38-2.29-13.2-2.15-3.76.11-10.23,1.17-13-4.55-.13-.26-.74-.41-1.13-.4-5.11.06-10.57-.92-15.24.56s-8.07-.76-12-1.2-8.34-3-12-2.18c-5.1,1.1-7.35-1.28-9.67-4.1l-5.71.58-.25.56h0c-.06.13,0,.09,0,0l-6.94,1.77c.27-1.34.53-2.64.8-4-5.76.22-9.88-14.18-6.51-22.73.91,2.1,1.63,3.92,2.47,5.69a56,56,0,0,0,4,8c4.22,6.09,13.5,8.07,19.12,4.36,4.09-2.7,4.89-6.7,1.47-9.65-.87,1.45-1.7,2.83-2.52,4.21-2.69,4.55-6.21,5.73-10.25,2.32a19.94,19.94,0,0,1-5.68-8.93c-3.28-10.41-7-20.11-18.41-21.1,0-8.53-.52-16.34.16-24,.59-6.55,1.24-13.67,4.21-19.3a130.53,130.53,0,0,1,18.19-26.63,54.87,54.87,0,0,1,35.13-17.86l-4-1.11,38-2.85-2.83-5.81,3.41-1.7-15-3.75c.11-.57.21-1.14.31-1.7,7.28-2.3,14.87-3.92,21.71-7.14,4.87-2.28,9-5.28,14.84-4.2,6.35,1.17,13,1.24,17,6.94,1.9-1.71,3.48-4.23,5.52-4.69,2.77-.61,3.62-2.36,4.74-4.26l-.11.08.07-.1c-9.63,6-19.45.16-29.17.35-.55,0-1.11-.57-3-1.64,3-.39,4.64-.62,6.28-.82a48.71,48.71,0,0,0,7.09-.88c3.22-.88,6.15-1.56,7.9,2.23,5.18-4.31,7.2-4.7,13.15-2.52l-2.2,3.28.08-.05,0,.07,6.14-4.57,6,.35.18-1-2.32-1.58.57-1.55c1.71.54,3.8.62,5.06,1.69,5.49,4.66,11.76,3.27,17.4,1.58,4.22-1.27,7.73-3.36,11.68.1.31.28,1.23-.15,2.52-.35l-5-1.85c.12-.47.24-.93.35-1.4l16.14.75c-.84-2.92-1.36-6.17-2.72-9-1.25-2.6-3.4-4.77-5.9-8.13l10.51,1.7-3.86-5.64c-.18.37-.35.75-.53,1.12-2.9-1.35-5.68-3.37-8.71-3.89-4.58-.78-9.34-.45-14-.75a7.91,7.91,0,0,1-4-1.14c-4.51-3.32-8.64-7.22-13.32-10.25a73.5,73.5,0,0,0-31.06-11.61c-9-1.15-17.66,3.19-26.71.57-5.25-1.51-10.9-1.68-16.38-2.45l-.4-2.56,8.26-3.91.22-1.16-25.47-5.53.07-.64,4.19-.3c-6.56-5.27-6.57-5.21-15.09-6.87a4.62,4.62,0,0,1-2.59-2.35c-.24-.44.75-1.54,1.07-2.16-2.14-.81-4.47-1.59-6.72-2.56-5.07-2.19-10-4.66-15.17-6.65-3.57-1.39-8.13,1-11.2-3.16-.72-1-3.13-.94-4.74-.89-4.2.14-8.39.63-12.59.81-11.47.49-23,.22-34.38,1.59-6.91.83-13.49,4.23-20.28,6.26-4.3,1.29-8.67,2.71-13.09,3.11-7.4.68-15,0-22.27,1.06-3.89.58-9.19.4-11,6.1-.42,1.33-2.72,2.81-4.23,2.91-2.86.17-5.82-1.12-8.66-.89a144,144,0,0,0-15.12,2.4,16.86,16.86,0,0,0-4.56,1.93c-4.55,2.41-8.4,6.64-12.67,8.49-9.42,4.06-18.33,10.32-29.28,10.18-.63,0-1.27.74-1.9,1.13,0,.34.11.68.16,1h8.45l-5,8.58,5.42,1.81a9.66,9.66,0,0,1-5.18,1.2c-2-.19-4.49-1.89-5.79-1.17-3,1.63-4.44-.54-6.49-1.36-.54-.21-1.28-.93-1.51-.77-2.3,1.5-4.5,3.14-7.1,5-3.26-.9-6.4-.07-8.31,2.82-.38.57,0,1.67.07,2.37l-12.29,8.67c4.1,4.15,9.16-4.1,13.17,2.47-7,4.74-15.22,1.84-22.46,4s-15.06,2.35-22.45,3.37c1,1.73,1.57,2.78,2.16,3.84l-1.29.84-3.66-3.08c-3.51,1.77-6.88,3.41-10.21,5.14-2.22,1.16-4.38,2.43-6.56,3.65l.84,1.71,7.75-2.62Zm215.84,161.39c-2.88-.46-5.59-1.9-8.38-2.9.16-.47.32-.94.47-1.41l-3.9,2.39-.81-.62,6.55-13.58c5.51-.79,8.12,1.66,8.51,7a10.24,10.24,0,0,0,1,4.33C1731.73,2404.1,1729.25,2405.07,1725.66,2404.49Zm11.49-5-1.05-.5c-.28-3.24-.56-6.49-.86-9.93l7-.68C1740.62,2391.87,1738.89,2395.67,1737.15,2399.47Zm147-165.4,9.57,3c-5,3.18-10,4.21-15.46,3-.08-.45-.16-.91-.25-1.37l8.41-1.57Zm-167,3.51a43,43,0,0,1,0-5.54l25.13,8.86c-.09.5-.18,1-.26,1.51-4.78-1.53-8.39-.45-12.48,2.59C1725.23,2248.21,1717.88,2243.29,1717.17,2237.58Zm37.33,42c7.88,3.31,10,5.94,9.47,12.47C1760.53,2287.67,1754,2286.54,1754.5,2279.56Zm.44,123.6c-.38-.46-.76-.91-1.13-1.37l2-11.71,5.91,7.74Zm8.48-100.72c-1.54-3.22-3-6.25-4.46-9.29C1767.35,2297.82,1767.36,2297.83,1763.42,2302.44Zm5.58-9.86c-.74-8.67-7.19-12.28-13.35-16.3-1.72-1.13-2.71-3.38-4.68-6C1769.13,2274.06,1772.12,2278.35,1769,2292.58Zm-14.58-23.65c1.16-1.88,1.87-3,2.7-4.4,3.25.8,6.69,1.44,6.41,6.67Zm61.75-14.79c10-10.66,21.68-10.84,33.68-9.82C1840.45,2253.36,1827.74,2249.79,1816.17,2254.14Zm36.52-13.58c.89-1.62,2.21-3.75,3.73-4.1,2.84-.65,5.93-.18,9.2-.18v8.06c-3.36-.23-7.45,3.21-11.2-.83C1853.63,2242.66,1852.4,2241.08,1852.69,2240.56Zm-8.07-15c2.9,3.05,8.38,4.69,5.05,11.35C1847,2233.18,1841.76,2231.44,1844.62,2225.54Zm-23.52,7.77c3.06-1.11,5.91-2.82,9-3.87,1.56-.53,3.81-.83,5.07-.08,4,2.34,7.59,5.22,12.25,8.54l-32.83,5.75c-.45-1.86-1.11-4.63-1.92-8C1815.2,2235,1818.23,2234.34,1821.1,2233.31Zm-19.46,5.24c1.59-.12,3.16-.58,4.75-.77,1.12-.13,2.68-.53,3.31,0a5.35,5.35,0,0,1,1.87,3.72c-.47,5.25-5,8.74-10.21,7.4-6.56-1.7-12.94-4.12-19.39-6.23l.34-2.86C1788.75,2239.42,1795.2,2239,1801.64,2238.55Zm-15.35-7.16-11,7.12c-.24-.42-.48-.85-.73-1.27C1778.62,2229.63,1780.25,2228.79,1786.29,2231.39ZM1755,2220.78c5.18-1.94,9.44-.29,18,6.59.87,5.41-9.69,5.68-4.29,13.07l-1.77.09-13.15-14.75,3.63-1.28Zm-5,5.44c3.87,5,9.88,8.54,10.92,15.58-3.5-1.91-7.45-3-9.68-5.59-2-2.34-2.18-6.3-3.16-9.55Zm-3.52,61.27c-4-3.43-7.37-6.29-11.57-9.9C1744.21,2279.43,1747,2281.57,1746.52,2287.49Zm-13.36-14c-3,.13-6.17-2.94-9.27-4.58.07-.42.14-.84.2-1.26,1.45-.1,3.09-.69,4.31-.21,5,2,10,4.19,14.92,6.56,1.28.62,2.14,2.12,2.78,3.64A18.83,18.83,0,0,0,1733.16,2273.46Zm-3.13-47.23c-.85-2.19-1.76-4.35-2.64-6.53,2.46.22,5.11-.08,7.35.74,8.34,3,10.32,6.35,9.94,15.5l-23.18-6.71c.07-.51.13-1,.2-1.52l4.84-3.25,3.24,3C1729.92,2226.8,1730.12,2226.46,1730,2226.23Zm-7.45-4.62c-9.24,4-12.3,2.6-14.38-7.23Zm-10.24,14.84-2.1,2-3.63-6.51C1711.72,2231,1713,2231.87,1712.34,2236.45Zm-9.32-2.93a47.92,47.92,0,0,1,4.23,6l-18.18-4.53.21-1.88,4-.76-.91-1.06-.63-.74h0C1695.78,2228.31,1699.07,2228.91,1703,2233.52Zm-5.29-18.54c-2,5.8-5.51,4.76-9,3.86-.13-.55-.27-1.1-.41-1.65Zm-3.39,9.39-6.51,3.2,1.68,3.43-.81,1.1a35.05,35.05,0,0,1-5.24-3c-.21-.17.9-2.53,1.79-3.53C1687.48,2223.09,1690.06,2221.47,1694.34,2224.37Zm-23.83-9.55c4.12.6,8.27,1.06,12.34,1.93.66.15,1.61,2.55,1.23,3.13-.71,1.09-2.67,2.54-3.45,2.22-3.72-1.52-7.21-3.6-10.79-5.48C1670.06,2216,1670.28,2215.42,1670.51,2214.82Zm-.89,6.88,9.82,2C1671.46,2227.21,1669.13,2226.73,1669.62,2221.7Zm-2.68-1.86-8.72.47c-.06-.21-.38-1.35-.79-2.78C1665,2217.28,1665,2217.28,1666.94,2219.84Zm-6.25,5.89c1,.54,1.35,2.2,2.32,2.91a34.13,34.13,0,0,0,5.06,2.82,5.77,5.77,0,0,1,3.13,2.56l-3.67.85c.16.55.31,1.1.46,1.65l8-2.38c1.16,1.42,2.83,4.94,6.81,1.8.38-.31,1.93.38,2.6,1,5.73,5.17,12.85,5.68,20,6.46,3.35.36,6.59,1.64,9.89,2.51l.33,2.07c-4,1.9-7.86,4.06-12,5.49-1,.34-2.84-1.77-4.31-2.71-5-3.18-9.81-6.63-15-9.36a9.81,9.81,0,0,0-7.24-.39c-5,1.92-9.63.85-14.07-.8-2.65-1-4.71-3.53-7.29-5.57l3.78-4.6c-5,1.31-9.76,4.19-10.66-2.81C1652.43,2225.32,1656.3,2223.38,1660.69,2225.73Zm-8,16.91-10.32-1.28C1649.24,2236.42,1650.82,2236.56,1652.67,2242.64Zm-9.43-56.59c0-.2,2,.12,3,.2-.32,2.26-.65,4.53-1,7.24C1640,2191,1642.61,2188.35,1643.24,2186.05Zm-59.93,39.74-7.52-4.47C1581.32,2218.18,1582.15,2218.64,1583.31,2225.79Z"/><path d="M2038.27,2505.45c-8.44-2.91-9.52-4.33-9.55-13.23,0-10.49.15-21-.12-31.48s-6.42-17.51-16.59-19.63-19.09.72-27.29,6.64c-1.37,1-2.77,1.93-5,3.49v-66.35c-5.44.85-10,1.71-14.63,2.25s-9.31.67-13.94,1.2c-1.18.14-2.27,1.14-3.4,1.75,1,.65,1.87,1.62,2.94,1.9,7.17,1.81,8.61,3.54,8.61,11.09q0,45,0,90c0,8.44-1.54,10.27-9.85,12.35-1.1.28-2,1.25-3,1.9l.65.94h44l.46-1.15a12,12,0,0,0-2.67-1.7c-7.38-2.25-9-4.34-9.06-12.11,0-10.33-.09-20.66.07-31,0-1.81.56-4.14,1.76-5.31a18.19,18.19,0,0,1,14-5.38c8.63.5,12.63,4.71,12.66,13.35,0,9.83.06,19.66,0,29.48,0,6.39-2.2,9-8.19,10.86a14.34,14.34,0,0,0-3.12,1.95l.6,1h44C2039.74,2506.64,2039.11,2505.74,2038.27,2505.45Z"/><path d="M1811.81,2493.11c-4.46,3.47-8.56,7-13.6,4.1-4.75-2.79-3.75-8.12-3.66-12.72.17-7.5.47-15,.82-22.48.37-8.15-3.44-14-10.55-17.17a50.08,50.08,0,0,0-39.38-1.15c-6.4,2.45-10.43,7.36-11.06,14.88l23,4.69c0-2.85-.17-5.18,0-7.47.51-5.72,3.67-8.67,9-8.62,4.76,0,7.72,2.81,8.07,8.31.33,5.13.07,10.29.07,16-5.79.34-11.21.05-16.35,1.13-6.91,1.44-14,3.11-20.29,6.19-7.4,3.64-10.25,11.61-8.58,19.07,1.39,6.19,7.67,12.27,15.22,12.49,6.82.2,13.79-1.18,20.5-2.72,4.24-1,8.13-3.53,12-5.33,16.19,12.46,21.14,11.62,37.27-6.58Zm-37.29,1.6a4,4,0,0,1-.79,2.24c-2.24,2.9-10.4,4.54-15,3-4.83-1.58-7.21-5-7.42-10-.24-5.43,1.84-9.5,7.32-11,4.9-1.37,10.22-1.26,15.91-1.87C1774.55,2483.83,1774.58,2489.27,1774.52,2494.71Z"/><path d="M1570.36,2448c-14.95-10.29-38.1-10-52.76.72s-18.46,30.23-8.72,44.85c8.45,12.69,21.17,17,39.86,17.62,3.81-1.2,11.92-2.48,18.76-6.14C1590.21,2492.88,1591.48,2462.52,1570.36,2448Zm-10.68,45.43a12.93,12.93,0,0,1-11.66,10.87c-6.21.76-11-2.11-14.62-6.93-4.14-5.45-6.31-14-7-24.88,1-5,1.3-10.3,3-15.09,4.1-11.68,17.37-14.28,24.81-4.41a38.13,38.13,0,0,1,6.84,17.75C1561.92,2478.16,1561,2486,1559.68,2493.42Z"/><path d="M1721.86,2475.59c-2-23.79-16.77-36.58-39.43-35-15.35,1.07-27,9.69-31.26,23.15-4.63,14.57-.48,30.59,10.17,39.24,16.58,13.46,47.06,9.34,59.93-8.45-1.19-1.23-2.43-2.51-3.64-3.74-12.44,10.15-24.36,12.49-34.32,7-7.48-4.11-12-13-11-22.23Zm-50.71-7.87c1.29-4.36,2.22-9.23,4.17-13.65,2.4-5.46,7.1-7.53,13.12-6.8,5.76.69,8.84,4.1,10.38,9.34a18.07,18.07,0,0,1,.56,2.42c1.36,8.81.42,9.94-8.44,9.95-6,0-12-.07-18-.14C1672.7,2468.84,1672.43,2468.52,1671.15,2467.72Z"/><path d="M1487.25,2497.62a26.78,26.78,0,0,1-18.92,2.21c-14.79-3.6-23.9-20.37-20.36-37.39,1.39-6.73,4.51-12.32,11.5-14.47s13.93-.75,18.64,5c4.14,5.08,7.08,11.13,10.61,16.71.88,1.4,2,2.67,3,4l1.31-.76c-.63-9.91-1.26-19.82-1.89-29.84-7.2-.87-13.94-1.83-20.7-2.45a48,48,0,0,0-24.84,4.14c-22.3,10.22-27.63,38.12-10.47,54.77,16.58,16.1,47.68,14.81,63.31-2.86l-3.19-3.54C1492.18,2494.88,1489.77,2496.34,1487.25,2497.62Z"/><path d="M1872.19,2438.2c-6.32-.57-11.78,1.71-16.79,5.23-3.48,2.44-6.81,5.1-11,8.25v-11.6c-10,1.09-19.41,2.08-28.82,3.19a9.57,9.57,0,0,0-2.78,1.4c.85.8,1.55,2,2.55,2.33,7.91,2.73,9.5,4.71,9.56,12.95q.1,16.23,0,32.47c0,7.95-1.9,10.33-9.24,12.76a14.21,14.21,0,0,0-3.21,2.13l.57,1.12h48.14c.18-.5.37-1,.55-1.49a16.1,16.1,0,0,0-3.67-1.63c-11.7-1.94-13.59-4.12-13.59-16q0-13,0-26c0-6.67,8-13.92,14.58-12.78a7.39,7.39,0,0,1,4.77,3.58c.63,1.37-.35,3.7-1.1,5.39-.4.9-1.83,1.33-2.79,2l.81,1.35c.59.12,1.32.53,1.76.32q9.06-4.17,18-8.54a3.3,3.3,0,0,0,1.54-1.75C1884.05,2446.71,1878.65,2438.78,1872.19,2438.2Z"/><path d="M1930.44,2498.79c-7,2.66-13.36-.67-13.64-7.65-.53-13.77-.15-27.56-.15-41.94h23.48v-6h-23.81v-23l-1.41-.91c-1.24,1.42-2.82,2.65-3.66,4.28-5.34,10.44-11.94,19.28-24.56,21.44-1,.17-1.76,2-3.54,4.17h13.64v6.06c0,12.67-.12,25.33,0,38,.14,10.73,5.45,16.51,15.89,17.47,13.09,1.21,21.89-6.68,30.85-14.11l-2.73-3.79C1937,2495.07,1933.93,2497.46,1930.44,2498.79Z"/><path d="M1613.11,2466.5a79,79,0,0,0-9.94-.59c-8,.35-8,.48-8.9,8.33-.46,3.93-1,7.85-1.45,11.32,10.76,0,21,.07,31.19,0a73.84,73.84,0,0,0,10.4-.89,3.8,3.8,0,0,0,2.62-2.27c1-6,1.66-12.14,2.53-18.91C1630.68,2467.82,1621.91,2467.21,1613.11,2466.5Z"/><path class="cls-40" d="M2549.2,2957.29c-5.11,5.25-10.08,10.64-15.23,15.85-1.95,2-2,3.38.15,5.29,4.77,4.16,9.38,8.5,14,12.87,2,1.92,3.5,1.89,5.34-.27,4-4.69,8.22-9.19,12.27-13.83,4.89-5.61,4.85-5.64,11-1.56,45,29.89,105.8,26.57,147.13-8,27.18-22.75,41.93-52.61,48.34-86.78,8.37-44.59,4-88.51-8.61-131.83-1-3.56-3.28-4.56-6.39-5.21-20.44-4.31-41.09-6.51-55.75-6.35-40.77-.06-74.28,4.87-105.69,20.17-82.12,40-95,135.28-46,193.82C2551.75,2953.91,2551.07,2955.38,2549.2,2957.29ZM2717,2946c-33.14,37.34-90.54,44.89-132.34,17.59-3.7-2.42-3.41-3.83-1-7.18,5.3-7.29,11.63-10.43,20.92-10.45,17.28,0,34.56-1.53,51.83-2.41v.09c19.27-1,38.54-2,57.81-2.94,1.86-.09,4.5-1.17,5.44.89C2720.45,2943.32,2718.15,2944.72,2717,2946Zm26.94-49.58a135.81,135.81,0,0,1-13.19,30.64c-1.6,2.68-4,2.63-6.49,2.63h-53.93v-2.13q-27.21,0-54.43,0c-1.54,0-3.69.8-4.46-1.05-.62-1.51,1.13-2.6,2.09-3.69,6.37-7.26,12.79-14.47,19.13-21.75a9,9,0,0,1,6.79-3.5q48.14-2.31,96.26-4.81c1.66-.08,3.33-.05,5-.15C2743.53,2892.45,2744.81,2893.55,2743.92,2896.46Zm7.23-44.18q-1,13.2-3,26.27c-.55,3.68-2.23,4.87-6,4.81-14.3-.22-28.61-.09-42.91-.09v-1.68c-14.47,0-28.94,0-43.41,0-1.42,0-3.38.53-4-1.11-.52-1.3,1.08-2.27,1.92-3.24,7.35-8.38,14.78-16.69,22-25.14a8.92,8.92,0,0,1,7-3.22c20.95-.74,41.9-1.41,62.84-2.33C2750.13,2846.32,2751.47,2848,2751.15,2852.28Zm-8.1-75.33c1.65.26,1.41,2.13,1.66,3.3a309.6,309.6,0,0,1,6.53,52.38c.17,4.72-1.53,5.94-6.12,5.71-8.12-.41-16.28-.12-24.43-.12v-.75c-8.65,0-17.29,0-25.94,0-1.41,0-3.34.66-4-1-.55-1.32.93-2.35,1.79-3.32q23.73-26.94,47.52-53.86C2740.87,2778.29,2741.61,2776.73,2743.05,2777Zm-67.12-13.88c6.83.06,13.66,0,20.48,0l0-.66c10.12.85,20.25,1.63,30.35,2.62,1.7.17,4.26-.3,4.92,1.55s-1.57,3.1-2.78,4.36q-21.84,22.68-43.76,45.28c-1.74,1.79-3.44,3.63-5.21,5.39-.8.79-1.55,2.06-2.84,1.7s-1-1.94-1.17-3q-1.9-18.14-3.71-36.27c-.5-5-.63-10-1.49-14.91C2670,2764.6,2671.72,2763,2675.93,2763.07Zm-45.22,6.64q12.64-3,25.47-4.93c4-.6,6.14.24,6.31,5,.73,20.79,1.73,41.56,2.74,62.34a10.41,10.41,0,0,1-3.33,8.41c-7.15,7.2-14.09,14.61-21.14,21.92-1.37,1.41-2.84,2.71-5.35,5.11-1.34-13-2.55-24.55-3.73-36.1-1.87-18.37-3.63-36.76-5.67-55.11C2625.57,2772.32,2627,2770.59,2630.71,2769.71Zm-38.64,15.84c6.06-3.8,12.66-6.63,19.23-9.5,4-1.77,5.38-.49,5.5,3.58.45,16.64,1,33.27,1.53,49.91,0,.67,0,1.33,0,2h.14c.55,15.81,1,31.61,1.69,47.41a9.8,9.8,0,0,1-3,8c-7.06,7.06-13.94,14.31-20.92,21.46-.76.77-1.31,2.2-2.73,1.76s-1.14-1.88-1.26-3q-5-48.92-10-97.83c-.12-1.16-.2-2.32-.31-3.48C2580.38,2790.82,2579.1,2793.7,2592.07,2785.55Zm-27.38,21.85a39.73,39.73,0,0,1,3.21-3.15c1.72-1.43,2.72-.75,3,1.28a20.66,20.66,0,0,1,.13,2.49q.91,30,1.82,59.93h0c.63,19.48,1.11,39,2,58.42.21,4.46-2.38,6.65-4.88,9.23-8.35,8.6-6.82,11-15.07-1.27C2528.4,2894.85,2532.53,2841.66,2564.69,2807.4Z"/><path class="cls-40" d="M2586.67,3264.47c-7.14-5.74-14.07-11.74-21.22-17.45-2.75-2.19-3.19-3.77-.85-6.84,15.39-20.17,22.62-43.13,22.71-70.44-.15-2.64-.27-7.32-.75-11.95a88.23,88.23,0,0,0-1.89-11.32c-9.59-39.81-32.84-68.14-72.34-80.15-40.47-12.3-78.14-5.18-109.59,24.29-25.93,24.29-36.25,55.3-33.88,90.42,2.07,30.63,14.29,56.76,37.93,76.65,38.07,32,93.62,33.94,134.58,5.09,3.15-2.22,5-1.89,7.61.62,6.73,6.45,13.91,12.44,20.57,19,3.11,3.06,5,2.62,7.53-.44a143.11,143.11,0,0,1,10.11-11.06C2589.84,3268.25,2589.31,3266.58,2586.67,3264.47Zm-39.32-42.4c-3.6,5.83-3.73,5.81-8.93,1.11-10.26-9.26-20.56-18.48-30.67-27.91-2.79-2.6-4.69-2.92-7.22.23a132.23,132.23,0,0,1-10,11.14c-2.75,2.72-2.26,4.51.5,6.82,10.35,8.64,20.57,17.45,30.84,26.19,5.5,4.68,5.49,4.85-.49,8.54a79.75,79.75,0,0,1-43.7,12c-42.07-.09-77.42-31.58-82.8-74-4-31.86,3.74-60,28-82,41.88-37.9,110.17-21.67,131.68,31.4C2566.67,3165.32,2564.38,3194.45,2547.35,3222.07Z"/><path class="cls-40" d="M1683.15,3177c-6-3.27-12.36-5.68-19.49-8.74,3.54-2.11,6.29-3.62,8.92-5.33,16.86-11,24.34-26.75,23.57-46.65-.76-19.7-10.57-33.5-27.74-42.48a80.7,80.7,0,0,0-37.09-8.85c-30.16-.28-60.32,0-90.47-.18-4.48,0-6.06,1.28-6,5.93q.2,101.45,0,202.91c0,4.42,1.57,5.83,5.81,5.81,30.49-.11,61,.09,91.47-.17,19.26-.17,37.71-3.72,54.09-14.86C1715,3244.76,1717.38,3195.61,1683.15,3177Zm-118.6-90.21c21.31.14,42.63,0,63.94.13a57.39,57.39,0,0,1,23.28,5c12.43,5.58,19.35,15.15,19.77,28.73s-4.82,24.69-16.82,31.91c-10,6-21.19,7.61-32.65,7.67-8.16,0-16.32,0-24.48,0-11,0-22-.09-33,0-4,.05-5.64-1.45-5.62-5.57q.18-31.21,0-62.44C1559,3088.1,1560.46,3086.71,1564.55,3086.74Zm105.34,159.88c-11.26,8.27-24.3,10.35-37.81,10.52-10,.13-20,0-30,0-12.32,0-24.63-.11-36.95,0-4.38.06-6.25-1.34-6.21-6,.18-21.3.09-42.6.07-63.9,0-3.08.21-5.62,4.41-5.54,25.94.5,51.92-1.11,77.84,1,9.53.78,18.73,3.11,26.94,8.27C1688,3203.46,1688.81,3232.74,1669.89,3246.62Z"/><path class="cls-40" d="M1964.48,3281.22c53.47-9.9,90.15-54.62,89.85-110.54a156,156,0,0,0-1.39-17.46c-13.51-82.19-98-112.38-159.86-79.3-39.61,21.19-57.48,56.4-57.34,100.87C1836,3243.48,1896.89,3293.73,1964.48,3281.22Zm-81.24-170.3c35.13-39.09,96.62-35.89,128.18,6.23,26.88,35.88,22.62,90.59-9.67,121.15-15.86,15-35,21.94-56.79,21.89-42.62-.11-78-32.1-83.11-74.88C1858.57,3157.48,1864.25,3132.05,1883.24,3110.92Z"/><path class="cls-40" d="M3027.22,3264.34c0-7.29-.24-7.43-7.69-7.43q-59,0-118,0c-6.53,0-6.69-.18-6.7-6.78q0-30,0-60c0-7.68.1-7.78,7.84-7.78q49.73,0,99.46,0c1.83,0,3.66,0,5.49-.06,2.91,0,4.14-1.47,4.06-4.4-.13-4.5-.14-9,0-13.49.09-3.23-1.34-4.58-4.47-4.46-1.67.06-3.33,0-5,0q-50.48,0-100.95,0c-3.64,0-6.52-.09-6.48-5.1.16-21,.1-42,0-63,0-3.7,1.66-5,5.18-5,4.66.12,9.33,0,14,0,35.15,0,70.31-.07,105.46.08,4.72,0,6.76-1.38,6.27-6.24-.29-3,0-6-.05-9,0-6.95,0-7-6.82-7H2877.45c-6.82,0-6.86,0-6.87,7q0,50,0,100c0,33.64.09,67.29-.09,100.94,0,5,1.59,7.12,6.57,6.64,1.65-.16,3.33,0,5,0,43.48,0,87,.1,130.44,0C3029.17,3279.24,3027.18,3281.73,3027.22,3264.34Z"/><path class="cls-40" d="M2805.83,3232.05c5.53-13.8,7.66-28.27,7.71-43,.14-38.81.05-77.63.05-116.44a19.06,19.06,0,0,1,0-2c.45-4.2-1.13-6.2-5.63-5.85-3.81.28-7.66,0-11.5.05-7.56,0-7.58,0-7.58,7.84q0,31,0,62,0,28,0,56a95,95,0,0,1-1.19,16.42c-4,23.5-15.27,41.54-39,49.31a76.84,76.84,0,0,1-48.18,0c-17.51-5.58-29.11-17.53-35.68-34.53-4.2-10.87-5.54-22.23-5.53-33.8q0-56.47,0-112.95c0-1.66-.09-3.33,0-5,.18-3.7-1.19-5.57-5.22-5.33s-8.33,0-12.5.05c-6.81,0-6.84,0-6.84,6.95q0,58.73,0,117.44a126.34,126.34,0,0,0,2.14,24.34c6,31,22.52,53.52,53.1,63.8,22.43,7.54,45.3,7.37,67.82.14C2780.92,3270.05,2796.82,3254.58,2805.83,3232.05Z"/><path class="cls-40" d="M2207.38,3087.38c10.33,0,20.66-.11,31,0,4,0,5.84-1.44,5.48-5.6-.24-2.81,0-5.66,0-8.49,0-8.5,0-8.51-8.3-8.51H2093.57c-4.5,0-9,.15-13.5,0-3.47-.15-4.85,1.39-4.81,4.7,0,3.67-.05,7.33,0,11,.09,6.46.42,6.86,6.78,6.88,18.66.06,37.32,0,56,0,9.18,0,9.2,0,9.2,9q0,85.7,0,171.4c0,2.33.11,4.66.07,7-.05,3.19,1.57,4.49,4.63,4.47,4.49,0,9-.2,13.49.11,5.07.35,6.52-1.7,6.48-6.68-.2-29.81-.1-59.63-.09-89.44q0-44.23,0-88.45c0-7.36.05-7.41,7.58-7.43C2188.72,3087.36,2198.05,3087.38,2207.38,3087.38Z"/><path class="cls-40" d="M1758,3274.67c-.16,3.18,1.38,4.57,4.48,4.56,4.33,0,8.66.12,13,.07,7-.09,7.21-.28,7.21-7.41q0-50,0-99.95v-66.47c0-11.83-.1-23.66,0-35.49,0-3.86-1.39-5.44-5.29-5.22s-7.66,0-11.5,0c-7.94,0-8,0-8,8q0,99.21,0,198.41C1758,3272.34,1758.08,3273.51,1758,3274.67Z"/><path class="cls-40" d="M2315.63,3069.41c.21-3.45-1.43-4.75-4.81-4.63-4.32.15-8.66,0-13,0-6.84,0-6.89,0-6.89,7q0,50.24,0,100.46v91c0,16.22,0,16.22,16.07,16.08,8.63-.08,8.64-.08,8.65-8.51V3072.91C2315.65,3071.74,2315.56,3070.57,2315.63,3069.41Z"/><path class="cls-40" d="M2883.66,3371.63c-7.49-.15-15,.11-22.47-.08-4.1-.1-5.59,1.51-5.52,5.59.19,10.48.06,21,.07,31.45,0,10.65,0,21.3,0,31.95,0,2.9.75,5,4.09,5,9.8-.05,19.65.82,29.39-.88,18.67-3.26,31.1-20.52,29.51-40.78C2917.37,3386.72,2901.41,3372,2883.66,3371.63Zm23,40.92c-1.36,12.18-11.14,21.4-23.76,22.25-3.81.26-7.65.18-11.47.3-3.31.11-4.82-1.3-4.75-4.76.15-7.31.05-14.64,0-22s.1-14.65,0-22c-.07-3.4,1.18-4.88,4.65-4.69,5.62.31,11.3-.59,16.87,1C2901.23,3386.52,2908.32,3397.9,2906.68,3412.55Z"/><path class="cls-40" d="M1656.15,3371.64c-7.32-.17-14.65.16-22-.12-4.68-.17-6.53,1.4-6.4,6.27.28,10.31.09,20.63.09,30.95,0,10.48,0,21,0,31.44,0,3,.63,5.36,4.28,5.33,9.63-.08,19.31.73,28.9-.84,18.7-3.05,31.24-20.11,29.83-40.5C1689.69,3387,1673.85,3372.07,1656.15,3371.64Zm22.78,40.45c-1.18,12.44-11,21.86-23.87,22.71-3.81.25-7.65.18-11.48.3-3.32.11-4.8-1.33-4.73-4.78.14-7.32,0-14.65,0-22s.11-14.65-.05-22c-.07-3.47,1.3-4.82,4.71-4.64,5.47.31,11-.56,16.4.91C1673.08,3386.18,1680.33,3397.38,1678.93,3412.09Z"/><path class="cls-40" d="M2210.75,3371.61c-6.82-.09-13.65-.05-20.48,0-6.43,0-6.58.19-6.6,6.87,0,10,0,20,0,30h0c0,10.66.06,21.32,0,32,0,3.57,1.38,5.23,5,5.15,8.65-.19,17.31.44,26-.61,19-2.32,33-19.16,32.15-38.79C2245.92,3387.29,2229.87,3371.85,2210.75,3371.61Zm24,39.14A25.55,25.55,0,0,1,2211,3434.8c-3.48.26-7,.12-10.47.35-4.2.26-6.05-1.37-5.9-5.77.25-7.15.07-14.31.07-21.46s.09-14.32,0-21.47c-.06-3.35,1.17-4.91,4.67-4.73,5.3.28,10.64-.48,15.9.83C2227.88,3385.7,2235.75,3397,2234.74,3410.75Z"/><path class="cls-40" d="M1959.35,3371.53c-4.06,0-5.63,1.5-5.56,5.61.17,10.82,0,21.64,0,32.46v11.24l-1.12.37c-2.08-2.28-4.21-4.52-6.24-6.85q-17.84-20.55-35.64-41.14c-1.31-1.52-2.72-3.12-5.06-2.4-2.65.83-2,3.2-2,5.06,0,21.48,0,42.95,0,64.43,0,3.47,1.16,5.23,4.88,5.28s5.76-1,5.75-5c0-7.82.07-15.65.1-23.47,0-6.33,0-12.66.06-19,0-1.1-.27-2.59,1.13-3s2,1,2.74,1.76a24.74,24.74,0,0,1,1.58,1.94q18.79,22.35,37.6,44.7c1.39,1.65,2.81,3.56,5.41,2.61s2-3.25,2-5.15c0-21.31,0-42.62.08-63.93C1965,3372.93,1963.39,3371.51,1959.35,3371.53Z"/><path class="cls-40" d="M2634.3,3412.46a21.52,21.52,0,0,0,9.23-25.24,22.54,22.54,0,0,0-21.55-15.6c-8.65-.1-17.31.09-26-.06-3.82-.06-5.36,1.37-5.3,5.28.17,10.48.06,21,.06,31.46,0,10.65.1,21.3-.05,32-.06,3.89,1.5,5.32,5.3,5.35s5.93-1.21,5.77-5.46c-.2-5,0-10,0-15,0-8.62,0-8.36,8.78-8.69,4.94-.18,8,1.14,10,6,2.45,6,6,11.5,8.56,17.47,2.09,4.95,5.56,6.06,10.35,5.61,3.68-.35,4.79-1.83,3-5.21-3.39-6.3-6.53-12.75-10.19-18.89C2629.82,3417.46,2629.79,3415.23,2634.3,3412.46Zm-12.24-5.63c-5,.46-10,.13-15,.31-3.9.15-5.42-1.66-5.21-5.42.14-2.49,0-5,0-7.48.09-13.81-1.51-12.26,12.19-12.35a64.14,64.14,0,0,1,8,.18,12.29,12.29,0,0,1,11,12.18C2633.13,3400.88,2628.71,3406.22,2622.06,3406.83Z"/><path class="cls-41" d="M2546,3371.59c-5.81-.22-6.67.39-6.74,6.34-.18,14,.13,28-.52,42-.49,10.73-10.39,17.53-20.86,15.26-8.5-1.84-13.31-8.24-13.44-18.5-.17-13.33-.16-26.66-.06-40,0-4.41-2.26-5.17-6-5.14s-5.54,1.27-5.46,5.22c.15,7.16,0,14.32,0,21.49h0c0,6.33,0,12.66,0,19,.18,16.75,11.46,28.58,27.85,29.24,15.71.64,28.7-10.65,29.55-26.95.76-14.46.2-29,.26-43.47C2550.6,3372.88,2549.05,3371.7,2546,3371.59Z"/><path class="cls-42" d="M2117.3,3381.57c8,.18,16,0,24,.06,3.56,0,5.58-.9,5.6-5s-2-5.07-5.57-5c-11.66.09-23.32.2-35-.05-4.62-.1-6.23,1.68-6.17,6.1.15,10.16.05,20.32.06,30.48q0,15.74,0,31.47c0,3.3.6,6,4.82,6,12.49,0,25,0,37.47,0,2.81,0,4.12-1.3,4.32-4.26.28-4.19-1.15-6.21-5.57-6.15-8.16.12-16.32-.08-24.48,0-3.5,0-5.25-1.3-5.11-5,.15-4,.18-8,0-12s1.55-5.33,5.34-5.24c6.49.14,13-.07,19.48,0,3.49,0,5.19-1.18,5.22-4.92s-1.54-5.38-5.37-5.29c-6.49.14-13-.15-19.48.07-4,.13-5.39-1.49-5.19-5.29a89.54,89.54,0,0,0,0-10.49C2111.4,3382.76,2113.34,3381.49,2117.3,3381.57Z"/><path class="cls-40" d="M2356,3375.45c-.87-1.91-1.36-4.47-4-4.56-3-.1-3.47,2.74-4.39,4.76q-14.4,31.28-28.64,62.61c-.84,1.86-2.83,3.94-1.25,6,1.74,2.23,4.63,1.27,7.06,1.19,2-.06,3.28-1.4,4.08-3.2,1.29-2.88,2.71-5.71,3.86-8.65s3-4.09,6.08-4c5.65.15,11.4.66,16.95-.12,9.64-1.34,16,1.52,18.36,11.44.86,3.56,3.43,5.18,6.66,4.68,5.6,0,6.46-1.25,4.3-6Q2370.57,3407.45,2356,3375.45Zm4.28,44.35q-8.73,0-17.47,0c-2,0-3.52-.6-2.5-3,3.5-8,7.11-16,10.68-24l1.47.09c3.45,7.71,6.88,15.44,10.36,23.14C2364,3418.77,2362.86,3419.79,2360.24,3419.8Z"/><path class="cls-40" d="M1566.17,3375.31c-.87-1.91-1.34-4.42-4.08-4.44s-3.3,2.49-4.17,4.39q-14.45,31.5-28.76,63.08c-.84,1.84-2.77,3.91-1.1,6s4.33,1.13,6.59,1.12,3.56-1.44,4.43-3.43c1.2-2.74,2.68-5.37,3.7-8.17,1.14-3.11,3.06-4.4,6.38-4.29,5.49.17,11,.59,16.46-.1,9.67-1.23,16.38,1.29,18.75,11.61a5.41,5.41,0,0,0,6.38,4.48c5.83,0,6.74-1.21,4.48-6.2Q1580.77,3407.3,1566.17,3375.31Zm4,44.55c-2.66-.09-5.32,0-8,0-2.16,0-4.33,0-6.49,0-6-.08-6.35-.48-4-5.82,2.64-6.1,5.4-12.15,8.13-18.2.47-1,.78-2.44,2.23-2.31,1,.1,1.45,1.25,1.85,2.15,3,6.66,6,13.35,9,20C1574.35,3418.7,1573.52,3420,1570.18,3419.86Z"/><path class="cls-41" d="M3010.85,3435.64q-13.71-30.21-27.42-60.41c-.88-1.93-1.49-4.4-4.19-4.34s-3.25,2.62-4.12,4.5q-12.09,26.28-24,52.63c-1.93,4.23-3.81,8.49-5.68,12.75-.82,1.87-1,3.55,1.39,4.49,3.67,1.46,8.68.15,9.57-3.58,2.72-11.34,10.19-13.76,20.37-12.11a12,12,0,0,0,2,0v0c4.66,0,9.32.07,14,0,2.7-.06,4.27,1.06,5.29,3.57a92.44,92.44,0,0,0,4.71,9.9c1.32,2.4,7.1,3.52,9.44,2,2.89-1.93.71-4.13.1-6.19A24.9,24.9,0,0,0,3010.85,3435.64Zm-23.33-15.79c-2.82-.06-5.65,0-8.48,0v-.05c-3,0-6,0-9,0-2.31,0-3-1.28-2.12-3.26q4.77-11,9.7-21.87c1.21-2.65,2.31-1.7,3.21.31q4.67,10.47,9.38,20.93C2991.52,3418.77,2990.49,3419.9,2987.52,3419.85Z"/><path class="cls-40" d="M2812.91,3435.2c-8,0-16-.15-24,0-3.84,0-5.43-1.48-5.22-5.36a117,117,0,0,0,0-12c-.19-3.75,1.5-5,5.05-4.94,6,.12,12,0,18,0,3.47,0,7.14.65,7.18-5,0-5.41-3.28-5.23-7-5.19-6.16.05-12.33-.11-18.49,0-3.36.07-5-1.08-4.75-4.61.17-2.82,0-5.66,0-8.49,0-8,0-8,7.82-8.06,7.33,0,14.67-.12,22,0,3.79.07,5.36-1.39,5.36-5.3s-1.91-4.76-5.28-4.73c-11.83.08-23.66.13-35.49,0-4.17-.06-5.53,1.62-5.46,5.64.18,10.5.06,21,.06,31.49,0,10.33.14,20.66-.07,31-.08,4.29,1.44,6,5.77,6,11.5-.16,23-.11,34.49,0,3.69,0,6-.77,6-5.22S2816.46,3435.2,2812.91,3435.2Z"/><path class="cls-40" d="M1841.81,3375.27c-.87-1.9-1.41-4.4-4.16-4.4s-3.26,2.52-4.13,4.42q-14.43,31.55-28.77,63.15c-.84,1.85-2.82,3.82-1,5.94,1.57,1.85,4,1.09,6.16,1.12,2.46,0,4-1.32,4.93-3.52,1.25-2.9,2.73-5.71,3.85-8.66,1-2.74,2.77-3.82,5.67-3.75,5.66.13,11.4.6,17-.11,9.73-1.24,16.39,1.33,18.68,11.72a5.38,5.38,0,0,0,6.41,4.37c5.61-.05,6.54-1.57,4.26-6.62Q1856.29,3407.09,1841.81,3375.27Zm4.8,44.51q-9.24,0-18.48,0c-2,0-2.77-1.12-2-2.94,3.52-8,7.11-16,10.68-24l1.5.22,10.41,23.15C1849.74,3418.4,1849.22,3419.76,1846.61,3419.78Z"/><path class="cls-40" d="M2060.76,3429.44c-2.72-1.57-4.7,0-6.84,1.34-9.67,6.07-19.53,6.47-29.14.14-12.38-8.16-15.71-25.12-7.69-37.58,8.19-12.7,23.2-15.85,36.75-7.73,4.91,2.94,7.08,2.68,9.66-1.28,2.9-4.47-1.09-6-3.65-7.69-12.77-8.18-26.15-8.51-39.35-1.45s-19.27,18.79-19.67,30.56c0,17.4,8.14,30.68,21.15,36.72,13.62,6.34,26.87,5.41,39.24-3.39C2065.93,3435.73,2065.63,3432.26,2060.76,3429.44Z"/><path class="cls-40" d="M2739.68,3372c-3.31-1.92-9.35.06-11,3.62-2,4.21-3.81,8.5-5.7,12.75l-15.6,35-1.42.11q-5.05-11.31-10.13-22.62c-3.87-8.66-7.68-17.34-11.64-26-1.4-3-7.1-4.76-10.42-2.95-3.92,2.13-.62,4.73.26,6.73q13.7,30.76,27.74,61.38c1.05,2.3,1.44,5.78,4.66,5.89s3.68-3.42,4.76-5.69c3.86-8.11,7.53-16.3,11.26-24.48q8.79-19.29,17.52-38.61C2740.7,3375.5,2742.3,3373.49,2739.68,3372Z"/><path class="cls-40" d="M1783.82,3371.83a8.07,8.07,0,0,0-10.6,4.52c-6.41,14.27-12.75,28.57-19.13,42.85-.66,1.47-.88,3.24-2.57,4.13-1.82-1-2.13-2.94-2.85-4.54-6.25-14-12.42-28-18.65-42-2.15-4.84-5.85-6.47-10.85-5.06-1.91.54-2.39,1.64-1.81,3.34a48.64,48.64,0,0,0,1.84,4.64q14,30.93,28,61.84c.87,1.91,1.38,4.47,4.07,4.52s3.3-2.5,4.17-4.41q7.92-17.23,15.73-34.53c4.54-10,9.12-20,13.61-30C1785.68,3375.25,1787.1,3373,1783.82,3371.83Z"/><path class="cls-40" d="M2461.28,3372c-3-1.73-9.45-.07-11.61,2.94-4.78,6.62-9.66,13.17-14.16,20-2.41,3.64-3.85,3.06-6-.1-4.22-6.19-8.88-12.09-12.92-18.39-2.51-3.91-5.65-5.21-10-4.86-4.86.39-5.52,1.36-2.81,5.34,4.59,6.74,8.87,13.78,14.11,20,7.32,8.67,11,18,9,27.1,0,7.28,0,12.28,0,17.27,0,3.72,2.33,4.31,5.31,4.3s5.79-.22,5.76-4.35c-.05-4.83.52-9.72-.06-14.48-1.43-11.81,1.91-21.69,9.78-30.63,5.15-5.84,9.2-12.66,13.68-19.08C2462.39,3375.43,2464,3373.57,2461.28,3372Z"/><rect class="cls-40" x="3733.42" y="1842.71" width="931.4" height="931.4"/><circle class="cls-43" cx="226.72" cy="1476.75" r="226.72"/><path class="cls-44" d="M318.67,1423c.42-9.25-2-17.9-5.72-26.25-2.09-5.83-5.61-10.89-8.76-16.15A95.35,95.35,0,0,0,276.64,1354a121.31,121.31,0,0,0-14.27-7.41c-7.49-3.79-15.66-4.73-23.83-5.71H213.59c-7.82,1.07-15.5,2.67-22.71,6a130.52,130.52,0,0,0-16.6,9.13,98.51,98.51,0,0,0-24.37,24.63c-3.18,5.24-6.61,10.34-8.74,16.14-.81,1.62-1.34,3.35-2.06,5-3.34,7.66-3.31,15.92-4.38,24v16c1.36,5.25.84,10.75,2.39,16a288.16,288.16,0,0,0,19.52,48.76c2.87,5.63,6.33,10.93,9,16.67,4.62,8,9.43,15.94,14.17,23.89,5.09,8.17,10.47,16.15,15.78,24.18,5.35,8.48,11.66,16.28,17.32,24.55,3.38,4.28,6.64,8.65,9.87,13a15.26,15.26,0,0,0,3.79,3.73h1c2-1.07,3.22-2.83,4.52-4.56a778.68,778.68,0,0,0,52.53-78.16c12.95-22.2,24-45.19,31.54-69.81,1.81-5.91,3-11.88,2.39-18.1A176.56,176.56,0,0,1,318.67,1423Zm-92,56a49.41,49.41,0,1,1,49.41-49.4A49.4,49.4,0,0,1,226.72,1479.08Z"/></svg>