<svg id="Layer_1" data-name="Layer 1" xmlns="http://www.w3.org/2000/svg" viewBox="0 0 453.45 453.45"><defs><style>.cls-1{fill:#fff;}.cls-2{fill:#ce2428;}</style></defs><circle class="cls-1" cx="226.72" cy="226.72" r="226.72"/><path class="cls-2" d="M318.67,173c.42-9.26-2-17.9-5.72-26.25-2.09-5.84-5.61-10.89-8.76-16.16A95.61,95.61,0,0,0,276.64,104a122.77,122.77,0,0,0-14.27-7.4c-7.49-3.79-15.66-4.73-23.83-5.72H213.59c-7.82,1.08-15.5,2.68-22.71,6a128.08,128.08,0,0,0-16.6,9.13,98.51,98.51,0,0,0-24.37,24.63c-3.18,5.23-6.61,10.33-8.74,16.13-.81,1.62-1.34,3.36-2.06,5-3.34,7.66-3.31,15.92-4.38,24v16c1.36,5.26.84,10.75,2.39,16a288.59,288.59,0,0,0,19.52,48.77c2.87,5.62,6.33,10.93,9,16.66,4.62,8,9.43,15.94,14.17,23.89,5.09,8.17,10.47,16.15,15.78,24.19,5.35,8.48,11.66,16.28,17.32,24.54,3.38,4.29,6.64,8.65,9.87,13.05a15.44,15.44,0,0,0,3.79,3.73h1c2-1.07,3.22-2.84,4.52-4.56a779.82,779.82,0,0,0,52.53-78.16c12.95-22.2,24-45.2,31.54-69.81,1.81-5.91,3-11.89,2.39-18.11A176.36,176.36,0,0,1,318.67,173Zm-92,56a49.41,49.41,0,1,1,49.41-49.41A49.41,49.41,0,0,1,226.72,229.06Z"/></svg>